<svg width="784" height="227" viewBox="0 0 784 227" fill="none" xmlns="http://www.w3.org/2000/svg">
<path d="M154.079 143.007C161.619 130.336 165.389 133.956 165.389 123.095C150.309 123.095 155.964 119.474 140.885 115.854C139 112.234 133.345 104.993 131.46 106.803C129.952 108.251 130.832 119.474 131.46 124.905C123.92 130.336 131.46 139.387 123.92 146.628C76.7969 139.387 61.7175 162.92 50.408 179.212C18.3641 168.35 35.3283 124.905 12.7091 108.613C2.1535 99.9241 -4.25522 110.423 3.2845 110.423C31.5585 128.526 1.39978 171.971 54.1778 195.504C65.4874 220.847 76.7971 224.467 99.4162 224.467C106.956 224.467 110.726 222.657 106.956 217.226C93.3844 217.226 92.5047 212.399 93.7614 209.985C105.071 209.985 101.301 204.555 114.496 202.745C114.496 217.226 120.779 223.26 123.92 224.467C137.115 228.088 140.885 217.226 127.69 215.416C124.674 212.52 128.947 200.934 131.46 195.504C159.734 181.022 148.424 168.35 154.079 143.007Z" fill="#F0FEFF" fill-opacity="0.42"/>
<path d="M497.137 220.847V47.0657H534.835V66.9781C539.359 55.3927 549.915 45.2555 564.994 43.4453H580.074V94.1314C554.439 78.2014 541.747 97.1484 538.605 108.613V220.847H497.137Z" fill="#F0FEFF" fill-opacity="0.42"/>
<path d="M595.153 220.847V47.0657H632.852V66.9781C637.376 55.3927 647.931 45.2555 663.011 43.4453H678.09V94.1314C652.455 78.2014 639.763 97.1484 636.622 108.613V220.847H595.153Z" fill="#F0FEFF" fill-opacity="0.42"/>
<path d="M749.718 224.467C712.019 215.778 698.825 179.815 696.94 162.92H742.178C740.67 174.875 745.948 184.642 755.372 186.453C796.087 187.901 785.532 152.058 762.912 152.058C755.373 152.058 736.523 146.628 725.214 139.387C684.499 116.216 700.709 63.3577 723.329 52.4963C736.523 45.2555 749.718 39.8248 779.877 43.4453C813.052 44.8934 823.858 80.253 825.115 97.7518H779.877C777.992 65.1679 744.063 77.8394 745.948 92.3212C747.833 101.372 753.488 108.613 776.107 112.234C813.806 116.578 825.743 145.421 827 159.299V179.212C820.968 209.623 796.841 224.467 768.567 224.467H749.718Z" fill="#F0FEFF" fill-opacity="0.42"/>
<path d="M350.112 181.022V47.0657H393.466V171.971C408.545 193.693 424.881 181.022 431.164 171.971V47.0657H474.518V220.847H434.934C434.934 207.813 432.421 205.762 431.164 206.365C414.2 238.949 353.882 226.277 350.112 181.022Z" fill="#F0FEFF" fill-opacity="0.42"/>
<path fill-rule="evenodd" clip-rule="evenodd" d="M191.778 226.277V0H276.6C333.148 0 373.108 114.406 276.6 144.818H240.786V226.277H191.778ZM276.6 110.423H231.362C223.822 110.423 234.503 101.976 240.786 97.7518C225.707 88.7007 240.786 86.8905 246.441 94.1314C263.633 85.8762 269.848 94.1854 275.099 101.204C275.605 101.881 276.103 102.546 276.6 103.182C309.775 68.4263 284.14 40.1847 261.52 38.0146H231.362C226.838 35.1182 229.477 31.9805 231.362 30.7737H261.52C319.953 43.4453 299.219 101.372 276.6 110.423Z" fill="#F0FEFF" fill-opacity="0.42"/>
</svg>
