<svg width="806" height="211" viewBox="0 0 806 211" fill="none" xmlns="http://www.w3.org/2000/svg">
<path d="M66.4901 158.286C85.7272 136.054 99.1231 120.573 104.326 107.366C103.739 102.893 101.859 93.2744 99.0388 90.5903C95.5138 87.2351 93.7512 67.1039 102.564 62.0711C111.376 57.0383 111.376 60.3935 118.427 57.0383C124.067 54.3542 127.827 50.3279 129.002 48.6503C133.114 46.9727 140.987 48.3148 139.577 67.1039C136.052 72.1367 130.764 75.4919 132.527 80.5247C134.289 85.5575 150.152 93.9455 153.677 102.333C149.447 99.6493 147.214 101.215 146.627 102.333C150.739 106.807 158.965 116.425 158.965 119.109H153.677C156.027 126.379 159.67 145.615 155.439 164.405C150.152 187.891 153.677 197.956 157.202 197.956C160.727 197.956 167.777 204.667 157.202 206.344C146.627 208.022 141.339 191.246 139.577 186.213C137.814 181.181 143.102 162.727 129.002 154.339C130.764 157.694 134.289 167.76 127.239 176.148C125.829 180.174 117.839 185.095 114.901 187.891C113.139 181.181 107.851 164.405 90.2262 166.082C99.0388 166.082 125.477 191.246 102.564 202.989C84.2336 212.384 67.9009 203.548 62.0259 197.956C62.0259 196.279 61.3209 193.93 58.5009 197.956C58.5009 206.009 42.0507 206.904 33.8255 206.344H17.9629C10.9128 206.344 -4.94992 207.016 -12 209.7C3.86269 197.956 12.6753 201.312 33.8255 197.956C49.3357 196.614 56.7384 188.45 58.5009 184.536C57.9134 179.503 58.5009 167.424 65.551 159.372L66.4901 158.286Z" fill="#F0FEFF" fill-opacity="0.42"/>
<path d="M127.239 202.989C127.239 207.016 114.314 206.904 107.851 206.344C104.326 208.022 109.614 197.164 113.139 197.956C116.664 198.748 127.239 197.956 127.239 202.989Z" fill="#F0FEFF" fill-opacity="0.42"/>
<path d="M483.268 208.022V46.9727H518.519V65.4263C522.749 54.6897 532.619 45.2951 546.719 43.6175H560.819V90.5903C536.849 75.8274 524.981 93.3862 522.044 104.011V208.022H483.268Z" fill="#F0FEFF" fill-opacity="0.42"/>
<path d="M613.695 0H571.394V208.022H613.695L611.932 139.241L648.945 208.022H691.246L645.42 120.787L687.721 46.9727H645.42C641.19 52.341 622.507 90.5903 613.695 109.044V0Z" fill="#F0FEFF" fill-opacity="0.42"/>
<path d="M733.546 211.377C698.296 203.325 685.958 169.997 684.196 154.339H726.496C725.086 165.419 730.021 174.47 738.834 176.148C776.904 177.49 767.034 144.273 745.884 144.273C738.834 144.273 721.209 139.241 710.633 132.53C672.563 111.057 687.721 62.0711 708.871 52.0055C721.209 45.2951 733.546 40.2623 761.747 43.6175C792.767 44.9596 802.872 77.7287 804.047 93.9454H761.747C759.984 63.7487 728.259 75.4919 730.021 88.9127C731.784 97.3006 737.071 104.011 758.222 107.366C793.472 111.392 804.635 138.122 805.81 150.984V169.437C800.17 197.621 777.609 211.377 751.171 211.377H733.546Z" fill="#F0FEFF" fill-opacity="0.42"/>
<path fill-rule="evenodd" clip-rule="evenodd" d="M419.818 206.344C420.405 202.989 420.875 195.608 418.055 192.924C414.53 199.634 402.192 209.7 396.905 209.7C391.617 211.377 379.28 211.377 372.23 208.022C371.753 207.795 371.212 207.553 370.614 207.286C362.375 203.598 343.433 195.12 335.217 156.017C333.454 142.596 333.454 125.82 335.217 98.9782C337.567 81.6431 350.374 46.3017 382.805 43.6175C404.196 43.6175 410.587 51.3053 415.982 57.7948C417.254 59.3258 418.472 60.7901 419.818 62.0711C420.405 58.7159 421.228 50.999 419.818 46.9727H455.068V208.022H419.818V206.344ZM402.192 112.399C396.552 131.188 397.492 147.069 398.667 152.661C407.48 164.405 400.43 169.437 398.667 169.437C396.905 169.437 391.617 169.437 391.617 171.115C391.617 172.793 384.567 177.825 381.042 174.47C377.517 171.115 373.992 167.76 373.992 162.727C373.992 158.829 376.107 156.943 380.337 153.173C381.568 152.076 382.978 150.819 384.567 149.306C387.453 138.319 389.158 122.835 390.648 109.296C390.978 106.297 391.298 103.394 391.617 100.656C381.747 87.2351 389.855 83.8799 395.142 83.8799C395.73 84.4391 399.02 86.2285 407.48 88.9127C415.94 91.5968 412.18 98.9782 409.242 102.333C404.233 105.512 403.292 108.691 402.35 111.869C402.298 112.046 402.245 112.222 402.192 112.399Z" fill="#F0FEFF" fill-opacity="0.42"/>
<path fill-rule="evenodd" clip-rule="evenodd" d="M185.402 206.344V0H270.003C334.864 17.447 315.829 87.2351 277.053 93.9454C351.079 110.721 319.354 206.344 270.003 206.344H185.402ZM229.465 117.432V169.437H252.378C273.528 169.437 291.859 129.511 252.378 117.432H229.465ZM229.465 80.5247V36.9071H247.091C282.341 40.2623 266.478 82.2023 247.091 80.5247H229.465Z" fill="#F0FEFF" fill-opacity="0.42"/>
</svg>
