<svg width="112" height="124" viewBox="0 0 112 124" fill="none" xmlns="http://www.w3.org/2000/svg">
<path d="M59.5673 42.6853L38.4413 72.112H22.9149C15.2787 73.9032 8.66115 89.1539 22.9149 95.9092C29.5323 97.9564 35.8956 97.7005 35.8956 103.842C37.9321 113.258 48.7919 109.13 53.9672 105.889C59.5673 98.7239 58.2943 92.6851 52.1855 82.8591L74.5842 50.3618C77.8931 49.0825 82.2202 51.8971 84.5109 51.8971C91.8923 51.8971 98.0011 48.3148 97.492 39.6147C97.7465 35.7765 95.5067 28.2023 84.5109 28.6117C79.2167 28.6117 77.3841 24.6882 77.1295 22.7264C75.4329 18.8029 69.5452 12.4399 59.5673 18.3764C47.0949 25.797 59.5673 31.6822 59.5673 42.6853Z" fill="black"/>
<path fill-rule="evenodd" clip-rule="evenodd" d="M6.62439 100.515C11.715 103.33 25.0014 112.184 31.3138 118.939C38.1863 128.662 69.7479 125.336 71.5299 100.515C72.548 90.2798 67.8342 92.096 69.7479 85.4179C69.7479 85.4179 78.5339 69.2973 82.9835 66.7384C87.4331 64.1796 110.473 65.7148 112 35.7764C110.982 25.0293 99.2735 14.2821 91.383 13.2586C85.0706 12.4398 84.8878 5.35107 74.3295 1.48794C66.439 -1.39922 54.7306 -1.32646 46.0766 13.2587C42.5131 22.9824 42.5131 29.6353 44.4268 38.3354C43.2767 42.1736 35.2166 55.5649 31.3138 58.8061C26.2233 61.8767 16.8057 58.8061 9.55621 66.7384C-0.756887 76.2062 -4.16803 93.597 6.62439 100.515ZM33.8593 112.286C29.254 106.671 15.4291 98.249 11.7151 95.9093C3.84137 90.1586 5.97278 78.9586 13.4968 71.0885C18.7858 64.4949 30.1455 67.7556 33.8593 65.2032C36.7066 62.5089 50.0738 42.8053 50.9129 39.6148C49.5167 32.3829 48.3131 25.1797 50.9129 17.097C57.2265 4.97317 68.5729 5.48525 74.3295 7.88518C82.0324 11.0964 86.7777 19.9987 91.383 20.6794C97.1396 21.5302 104.894 28.3784 105.637 37.3118C104.523 62.1979 83.6847 58.2144 80.4384 60.3414C77.1922 62.4684 62.3668 83.6268 62.3668 83.6268C62.3668 88.7445 64.8913 90.4718 64.1485 98.9799C62.8484 119.612 38.8733 120.369 33.8593 112.286Z" fill="#F5822B"/>
<path fill-rule="evenodd" clip-rule="evenodd" d="M11.7151 95.9093C15.4291 98.249 29.254 106.671 33.8593 112.286C38.8733 120.369 62.8484 119.612 64.1485 98.9799C64.8913 90.4718 62.3668 88.7445 62.3668 83.6268C62.3668 83.6268 77.1922 62.4684 80.4384 60.3414C83.6847 58.2144 104.523 62.1979 105.637 37.3118C104.894 28.3784 97.1396 21.5302 91.383 20.6794C86.7777 19.9987 82.0324 11.0964 74.3295 7.88518C68.5729 5.48525 57.2265 4.97317 50.9129 17.097C48.3131 25.1797 49.5167 32.3829 50.9129 39.6148C50.0738 42.8053 36.7066 62.5089 33.8593 65.2032C30.1455 67.7556 18.7858 64.4949 13.4968 71.0885C5.97278 78.9586 3.84137 90.1586 11.7151 95.9093ZM38.4413 72.112L59.5673 42.6853C59.5673 31.6822 47.0949 25.797 59.5673 18.3764C69.5452 12.4399 75.4329 18.8029 77.1295 22.7264C77.3841 24.6882 79.2167 28.6117 84.5109 28.6117C95.5067 28.2023 97.7465 35.7765 97.492 39.6147C98.0011 48.3148 91.8923 51.8971 84.5109 51.8971C82.2202 51.8971 77.8931 49.0825 74.5842 50.3618L52.1855 82.8591C58.2943 92.6851 59.5673 98.7239 53.9672 105.889C48.7919 109.13 37.9321 113.258 35.8956 103.842C35.8956 97.7005 29.5323 97.9564 22.9149 95.9092C8.66115 89.1539 15.2787 73.9032 22.9149 72.112H38.4413Z" fill="#FDFFFF"/>
</svg>
