<svg width="594" height="537" viewBox="0 0 594 537" fill="none" xmlns="http://www.w3.org/2000/svg">
<path fill-rule="evenodd" clip-rule="evenodd" d="M233.481 523.899H359.739C448.41 523.899 492.759 523.899 524.608 503.017C538.354 494.015 550.19 482.391 559.44 468.81C580.72 437.558 580.72 394.004 580.72 306.953C580.72 219.901 580.72 176.347 559.44 145.095C550.19 131.515 538.354 119.891 524.608 110.889C504.152 97.4501 478.525 92.6487 439.29 90.944C420.567 90.944 404.458 77.0227 400.793 58.9817C397.992 45.7668 390.715 33.9242 380.191 25.4553C369.667 16.9864 356.541 12.4107 343.033 12.5013H250.186C222.116 12.5013 197.938 31.9628 192.427 58.9817C188.762 77.0227 172.653 90.944 153.93 90.944C114.723 92.6487 89.096 97.4786 68.6117 110.889C54.876 119.894 43.0496 131.517 33.8082 145.095C12.5 176.347 12.5 219.873 12.5 306.953C12.5 394.032 12.5 437.53 33.7798 468.81C42.985 482.334 54.8039 493.954 68.6117 503.017C100.46 523.899 144.81 523.899 233.481 523.899ZM296.611 381.843C343.684 381.843 381.844 343.683 381.844 296.61C381.844 249.537 343.684 211.377 296.611 211.377C249.538 211.377 211.378 249.537 211.378 296.61C211.378 343.683 249.538 381.843 296.611 381.843Z" fill="#FAFFFF"/>
<path d="M296.611 381.843C343.684 381.843 381.844 343.683 381.844 296.61C381.844 249.537 343.684 211.377 296.611 211.377C249.538 211.377 211.378 249.537 211.378 296.61C211.378 343.683 249.538 381.843 296.611 381.843Z" fill="#FAFFFF"/>
<path d="M495.488 211.377H467.077M381.844 296.61C381.844 343.683 343.684 381.843 296.611 381.843C249.538 381.843 211.378 343.683 211.378 296.61C211.378 249.537 249.538 211.377 296.611 211.377C343.684 211.377 381.844 249.537 381.844 296.61ZM233.481 523.899H359.739C448.41 523.899 492.759 523.899 524.608 503.017C538.354 494.015 550.19 482.391 559.44 468.81C580.72 437.558 580.72 394.004 580.72 306.953C580.72 219.901 580.72 176.347 559.44 145.095C550.19 131.515 538.354 119.891 524.608 110.889C504.152 97.4501 478.525 92.6487 439.29 90.944C420.567 90.944 404.458 77.0227 400.793 58.9817C397.992 45.7668 390.715 33.9242 380.191 25.4553C369.667 16.9864 356.541 12.4107 343.033 12.5013H250.186C222.116 12.5013 197.938 31.9628 192.427 58.9817C188.762 77.0227 172.653 90.944 153.93 90.944C114.723 92.6487 89.096 97.4786 68.6117 110.889C54.876 119.894 43.0496 131.517 33.8082 145.095C12.5 176.347 12.5 219.873 12.5 306.953C12.5 394.032 12.5 437.53 33.7798 468.81C42.985 482.334 54.8039 493.954 68.6117 503.017C100.46 523.899 144.81 523.899 233.481 523.899Z" stroke="#F5822B" stroke-width="25" stroke-linecap="round"/>
<path d="M495.488 211.377H467.077" stroke="black" stroke-width="25" stroke-linecap="round"/>
<path d="M296.611 381.843C343.684 381.843 381.844 343.683 381.844 296.61C381.844 249.537 343.684 211.377 296.611 211.377C249.538 211.377 211.378 249.537 211.378 296.61C211.378 343.683 249.538 381.843 296.611 381.843Z" fill="#FAFFFF" stroke="black" stroke-width="25" stroke-linecap="round"/>
</svg>
