<svg width="853" height="380" viewBox="0 0 853 380" fill="none" xmlns="http://www.w3.org/2000/svg">
<path d="M772.701 328.653C789.821 320.147 799.941 309.747 799.941 298.507C799.941 269.813 734.221 246.533 653.164 246.533C628.247 246.533 604.792 248.747 584.239 252.627C590.671 242.92 594.244 232.307 594.244 221.187C594.244 219.747 594.184 218.32 594.067 216.907C634.023 208.32 662.173 187.773 662.173 163.787C662.173 132.08 613.045 106.373 552.444 106.373C526.239 106.373 502.189 111.187 483.32 119.2C449.788 49.44 366.091 0 268.135 0C148.241 0 49.7053 74.0667 38.3759 168.8C36.9546 168.76 35.5239 168.72 34.0813 168.72C-6.37872 168.72 -39.1761 188 -39.1761 211.76C-39.1761 218.573 -36.4814 225 -31.6987 230.72C-74.2281 233.827 -106.207 247.16 -106.207 263.16C-106.207 264.52 -105.948 265.867 -105.497 267.173C-113.504 270.267 -120.696 273.853 -126.907 277.84C-144.86 263.827 -172.851 254.8 -204.323 254.8C-249.545 254.8 -287.599 273.413 -298.96 298.72C-342.897 299.907 -376.369 306.027 -376.369 313.4C-376.369 320.707 -343.351 326.787 -299.856 328.04C-299.005 330.253 -297.967 332.44 -296.721 334.547C-410.539 336.707 -495 344.613 -495 354.053C-495 365.133 -378.407 374.12 -234.583 374.12C-226.18 374.12 -217.876 374.093 -209.679 374.04C-207.904 374.093 -206.12 374.12 -204.323 374.12C-201.607 374.12 -198.924 374.04 -196.264 373.907C-151.616 373.4 -110.664 372.027 -76.408 370C-62.912 372.653 -48.2294 374.12 -32.8494 374.12C-5.83203 374.12 19.0759 369.627 39.0679 362.04C45.08 362.747 51.2827 363.12 57.636 363.12C73.4 363.12 88.2706 360.84 101.423 356.813C110.743 360.76 122.523 363.12 135.344 363.12C148.552 363.12 160.664 360.627 170.111 356.453C199.867 367.787 233.084 374.12 268.135 374.12C306.665 374.12 342.983 366.467 374.917 352.947C388.525 368.68 418.527 379.627 453.376 379.627C501.016 379.627 539.635 359.187 539.635 333.973C539.635 333.107 539.579 332.24 539.487 331.387C566.403 343.04 607.324 350.48 653.164 350.48C666.173 350.48 678.78 349.88 690.795 348.747C696.488 356.92 724.621 363.12 758.488 363.12C796.475 363.12 827.261 355.32 827.261 345.693C827.261 337.307 803.861 330.307 772.701 328.653Z" fill="#E9F6FC"/>
<path d="M827.261 345.693C827.261 345.773 827.261 345.867 827.248 345.933C826.755 355.453 796.141 363.12 758.488 363.12C724.621 363.12 696.488 356.92 690.781 348.747C678.795 349.88 666.171 350.48 653.168 350.48C607.32 350.48 566.405 343.04 539.483 331.373C539.575 332.24 539.629 333.107 539.629 333.987C539.629 359.2 501.007 379.627 453.38 379.627C418.535 379.627 388.532 368.68 374.924 352.947C342.977 366.467 306.665 374.12 268.135 374.12C233.088 374.12 199.857 367.787 170.111 356.467C160.667 360.627 148.544 363.12 135.34 363.12C122.52 363.12 110.747 360.76 101.431 356.813C88.2626 360.853 73.408 363.12 57.636 363.12C51.2906 363.12 45.0733 362.733 39.0773 362.04C19.068 369.613 -5.83603 374.12 -32.8494 374.12C-48.2361 374.12 -62.908 372.653 -76.4054 370C-110.664 372.013 -151.615 373.387 -196.272 373.907C-198.931 374.04 -201.608 374.12 -204.323 374.12C-206.12 374.12 -207.899 374.093 -209.677 374.04C-217.875 374.093 -226.183 374.12 -234.583 374.12C-378.399 374.12 -495 365.133 -495 354.04C-495 350.907 -485.703 347.96 -469.105 345.32C-435.709 340 -372.768 335.987 -296.716 334.547C-297.963 332.44 -299.008 330.253 -299.852 328.04C-343.352 326.787 -376.363 320.707 -376.363 313.387C-376.363 306.027 -342.893 299.907 -298.953 298.72C-292.185 283.64 -275.956 270.947 -254.371 263.16C-239.204 265.16 -225.485 268.173 -213.913 271.973C-199.169 267 -180.243 263.32 -158.915 261.6C-146.425 265.56 -135.513 271.133 -126.912 277.84C-120.695 273.84 -113.507 270.267 -105.492 267.173C-105.951 265.867 -106.207 264.533 -106.207 263.16C-106.207 247.16 -74.2227 233.827 -31.6947 230.707C-36.4814 224.987 -39.1774 218.573 -39.1774 211.773C-39.1774 200.213 -31.4201 189.707 -18.7841 181.987C-3.01208 182.88 11.8799 185.32 25.304 188.987C36.6199 175.853 54.1519 164.787 75.7186 157.027C65.0079 146.427 56.7933 134.613 51.6386 122C84.2466 50.7733 168.864 0 268.135 0C305.584 0 340.941 7.22668 372.228 20.0667C394.272 39.8667 407.293 64.3199 407.293 90.7866C407.293 97.0933 406.541 103.267 405.129 109.32C418.535 103.493 433.317 100.267 448.868 100.267C457.727 100.267 466.345 101.307 474.599 103.307C477.808 108.48 480.724 113.787 483.328 119.213C488.701 116.92 494.496 114.893 500.64 113.2C535.301 131.693 558.904 168.253 558.904 210.307C558.904 212.173 558.849 214.04 558.757 215.893C579.279 209.293 604.312 204.853 631.729 203.44C621.203 209.213 608.401 213.827 594.06 216.907C594.189 218.32 594.244 219.747 594.244 221.2C594.244 232.307 590.668 242.907 584.231 252.627C604.789 248.747 628.245 246.533 653.168 246.533C715.595 246.533 768.928 260.347 790.128 279.813C792.248 281.733 794.048 283.733 795.501 285.787C798.395 289.853 799.941 294.107 799.941 298.507C799.941 309.76 789.835 320.16 772.701 328.64C803.861 330.32 827.261 337.32 827.261 345.693Z" fill="#B5D7F7"/>
<path d="M852.328 319.707C852.328 330.187 842.609 339.573 827.248 345.933C814.355 351.307 797.462 354.56 778.982 354.56C738.462 354.56 705.622 338.973 705.622 319.707C705.622 318.453 705.769 317.2 706.035 315.987C688.928 318.773 670.224 320.333 650.602 320.333C596.335 320.333 548.983 308.547 523.602 291.027C503.978 309.2 477.735 320.333 448.868 320.333C388.092 320.333 338.834 271.053 338.834 210.307C338.834 200.693 340.062 191.373 342.372 182.48C325.096 192.04 305.088 199.48 283.228 204.267C285.998 210.507 287.483 217.013 287.483 223.747C287.483 267.293 225.624 302.6 149.315 302.6C141.631 302.6 134.111 302.213 126.758 301.533C116.359 307.093 104.475 310.253 91.8577 310.253C75.059 310.253 59.5617 304.653 47.1284 295.267C44.8177 296.253 42.451 297.187 40.0124 298.107C42.671 302.267 44.175 306.893 44.175 311.773C44.175 330 23.379 344.787 -2.27832 344.787C-22.2677 344.787 -39.3237 335.813 -45.8703 323.213C-47.3557 323.733 -48.8783 324.227 -50.4556 324.72C-49.3369 326.933 -48.7503 329.253 -48.7503 331.64C-48.7503 347.68 -75.2863 360.68 -108.041 360.68C-139.841 360.68 -165.773 348.427 -167.258 333.027C-178.958 331.76 -189.834 329.907 -199.517 327.56C-202.854 329.133 -206.504 330.627 -210.429 332.04C-208.632 333.573 -207.678 335.187 -207.678 336.84C-207.678 350.013 -268.18 360.68 -342.784 360.68C-400.48 360.68 -449.757 354.307 -469.105 345.32C-435.709 340 -372.768 335.987 -296.716 334.547C-297.962 332.44 -299.008 330.253 -299.852 328.04C-343.352 326.787 -376.362 320.707 -376.362 313.387C-376.362 306.027 -342.893 299.907 -298.953 298.72C-292.185 283.64 -275.956 270.947 -254.37 263.16C-239.204 265.16 -225.485 268.173 -213.913 271.973C-199.169 267 -180.242 263.32 -158.914 261.6C-146.425 265.56 -135.513 271.133 -126.912 277.84C-120.694 273.84 -113.506 270.267 -105.492 267.173C-105.95 265.867 -106.206 264.533 -106.206 263.16C-106.206 247.16 -74.2223 233.827 -31.6943 230.707C-36.481 224.987 -39.177 218.573 -39.177 211.773C-39.177 200.213 -31.4197 189.707 -18.7837 181.987C-3.01166 182.88 11.8803 185.32 25.3044 188.987C36.6204 175.853 54.1523 164.787 75.719 157.027C65.0084 146.427 56.7937 134.613 51.639 122C84.2471 50.7735 168.864 0.000152588 268.135 0.000152588C305.584 0.000152588 340.942 7.22684 372.228 20.0668C394.272 39.8668 407.294 64.3201 407.294 90.7867C407.294 97.0934 406.542 103.267 405.13 109.32C418.535 103.493 433.318 100.267 448.868 100.267C457.727 100.267 466.346 101.307 474.599 103.307C483.787 105.493 492.516 108.827 500.64 113.2C535.302 131.693 558.904 168.253 558.904 210.307C558.904 212.173 558.85 214.04 558.758 215.893C579.279 209.293 604.312 204.853 631.73 203.44C637.91 203.133 644.201 202.96 650.602 202.96C731.622 202.96 797.315 229.227 797.315 261.653C797.315 268 794.782 274.08 790.128 279.813C788.675 281.587 787.022 283.333 785.195 285.013C788.702 285.16 792.142 285.413 795.502 285.787C828.049 289.32 852.328 303.173 852.328 319.707Z" fill="#E9F6FC"/>
<path d="M742.195 307.36C770.675 296.787 804.408 291.987 834.861 297.16C824.821 291.56 811.115 287.48 795.501 285.787C795.475 285.747 795.448 285.707 795.421 285.68C795.301 285.52 795.181 285.36 795.061 285.213C794.581 284.56 794.062 283.907 793.501 283.267C793.422 283.16 793.341 283.067 793.248 282.96C792.648 282.28 791.995 281.6 791.302 280.933C791.062 280.68 790.795 280.44 790.528 280.187C790.395 280.067 790.261 279.933 790.128 279.813C794.781 274.08 797.315 268 797.315 261.653C797.315 229.227 731.621 202.96 650.601 202.96C644.201 202.96 637.912 203.133 631.732 203.44C650.58 193.133 662.173 179.173 662.173 163.787C662.173 132.08 613.045 106.373 552.444 106.373C533.693 106.373 516.06 108.853 500.625 113.187C492.504 108.827 483.781 105.493 474.599 103.307C474.583 103.307 474.567 103.307 474.551 103.293C452.357 67.4666 416.393 38.1999 372.26 20.0932C372.249 20.0932 372.239 20.08 372.228 20.0667C372.013 19.9733 371.793 19.8933 371.579 19.8133C370.501 19.3733 369.413 18.9466 368.326 18.5199C367.065 18.0266 365.799 17.5467 364.524 17.0667C363.461 16.6667 362.399 16.2799 361.327 15.8932C359.815 15.3466 358.291 14.8266 356.763 14.3199C355.928 14.0266 355.1 13.7333 354.26 13.4667C351.996 12.72 349.712 12.0267 347.415 11.3333C346.504 11.0667 345.585 10.8132 344.671 10.5599C343.085 10.1066 341.495 9.66666 339.895 9.23999C338.936 8.98666 337.977 8.73325 337.015 8.49323C335.264 8.05325 333.503 7.62662 331.735 7.21329C330.977 7.03995 330.225 6.8533 329.464 6.67996C326.988 6.1333 324.495 5.61334 321.987 5.13333C321.293 5 320.595 4.87994 319.899 4.74661C317.983 4.38663 316.06 4.05334 314.125 3.73334C313.239 3.58667 312.349 3.45331 311.457 3.30664C309.563 3.02664 307.659 2.74658 305.747 2.49323C304.983 2.3999 304.223 2.27994 303.457 2.18658C300.821 1.86661 298.172 1.56 295.508 1.30664C295.078 1.26666 294.643 1.24002 294.211 1.20001C291.947 0.986664 289.673 0.813263 287.389 0.653259C286.529 0.599945 285.667 0.559998 284.803 0.506653C282.837 0.386658 280.864 0.293243 278.884 0.226562C278.056 0.186584 277.229 0.160004 276.399 0.133331C273.655 0.0533447 270.903 0 268.135 0C265.348 0 262.576 0.0533447 259.813 0.133331C259.286 0.146667 258.756 0.159943 258.228 0.186584C255.571 0.266602 252.924 0.399902 250.291 0.559906C249.781 0.599915 249.275 0.626678 248.768 0.666687C246.133 0.839996 243.509 1.05325 240.901 1.29324C240.787 1.30658 240.671 1.31995 240.557 1.31995C237.887 1.58661 235.236 1.89328 232.595 2.21329C232.056 2.2933 231.519 2.35989 230.983 2.42657C228.427 2.75992 225.885 3.12 223.359 3.53336C222.865 3.60001 222.375 3.69333 221.883 3.77332C219.439 4.17331 217.008 4.60001 214.593 5.06668C214.373 5.10669 214.151 5.14661 213.929 5.18658C211.404 5.67993 208.899 6.21332 206.407 6.77332C205.852 6.90665 205.299 7.02658 204.747 7.15991C202.32 7.71991 199.907 8.30661 197.512 8.91992C197.033 9.05325 196.557 9.18665 196.079 9.30664C193.835 9.90665 191.603 10.5333 189.389 11.1733C189.075 11.2667 188.756 11.3599 188.44 11.4533C186.077 12.1599 183.736 12.9067 181.409 13.6667C180.847 13.8533 180.283 14.0399 179.721 14.2266C177.441 14.9866 175.177 15.7867 172.936 16.6C172.467 16.7733 172.004 16.96 171.537 17.1333C169.487 17.8933 167.453 18.6932 165.437 19.4932C165.057 19.6532 164.673 19.7999 164.295 19.9599C162.103 20.8532 159.935 21.7867 157.784 22.7333C157.22 22.9867 156.659 23.2266 156.099 23.4799C153.976 24.4399 151.872 25.4132 149.792 26.4266C149.354 26.6399 148.92 26.8533 148.483 27.08C146.616 27.9866 144.768 28.9332 142.937 29.8932C142.516 30.1066 142.092 30.3199 141.673 30.5466C139.661 31.6133 137.676 32.72 135.708 33.84C135.161 34.1466 134.617 34.4666 134.075 34.7733C132.123 35.9066 130.189 37.0532 128.284 38.2266C127.879 38.4799 127.482 38.7333 127.078 38.9866C125.389 40.0533 123.72 41.12 122.071 42.2133C121.637 42.5066 121.2 42.7866 120.771 43.08C118.941 44.3066 117.14 45.56 115.36 46.84C114.853 47.2 114.349 47.5733 113.845 47.9333C112.067 49.2267 110.305 50.5466 108.576 51.8799C108.232 52.1466 107.895 52.4266 107.552 52.6932C106.021 53.8932 104.512 55.12 103.023 56.3466C102.608 56.6933 102.189 57.0399 101.779 57.3866C100.137 58.7599 98.5255 60.1732 96.9362 61.5866C96.4828 61.9999 96.0348 62.4 95.5868 62.8133C93.9895 64.2666 92.4108 65.7332 90.8695 67.2266C90.5988 67.4932 90.3375 67.7599 90.0681 68.0266C88.6855 69.3866 87.3282 70.7599 85.9922 72.1466C85.6228 72.5333 85.2481 72.92 84.8815 73.3066C83.4322 74.8266 82.0148 76.3866 80.6228 77.9466C80.2428 78.3866 79.8668 78.8133 79.4908 79.24C78.0828 80.8533 76.6935 82.48 75.3481 84.1333C75.1682 84.36 74.9961 84.5867 74.8161 84.8C73.5775 86.3467 72.3682 87.8933 71.1841 89.4667C70.8748 89.8667 70.5628 90.28 70.2588 90.6799C69.0121 92.36 67.7988 94.0533 66.6148 95.7733C66.3188 96.2 66.0282 96.6267 65.7362 97.0667C64.5402 98.8267 63.3668 100.6 62.2401 102.387C62.1455 102.547 62.0548 102.693 61.9615 102.84C60.8708 104.6 59.8215 106.36 58.7975 108.147C58.5615 108.56 58.3215 108.96 58.0895 109.373C57.0602 111.2 56.0655 113.04 55.1068 114.893C54.8988 115.307 54.6975 115.707 54.4922 116.12C53.5322 118.013 52.5988 119.92 51.7161 121.84C51.6908 121.893 51.6642 121.947 51.6389 122H51.6401C44.8601 136.813 40.3268 152.493 38.3762 168.8C36.9548 168.76 35.5241 168.72 34.0815 168.72C13.2988 168.72 -5.44785 173.813 -18.7798 181.987C-18.7812 181.987 -18.7825 181.987 -18.7839 181.987C-18.8172 182 -18.8479 182.027 -18.8812 182.053C-19.5839 182.48 -20.2732 182.92 -20.9465 183.373C-21.0718 183.453 -21.1945 183.533 -21.3185 183.627C-21.9225 184.027 -22.5172 184.453 -23.0959 184.867C-23.2679 185 -23.4345 185.12 -23.6039 185.253C-24.1292 185.653 -24.6465 186.04 -25.1492 186.453C-25.3478 186.613 -25.5412 186.773 -25.7372 186.933C-26.1985 187.32 -26.6532 187.707 -27.0932 188.093C-27.3065 188.28 -27.5132 188.48 -27.7212 188.667C-28.1278 189.04 -28.5305 189.413 -28.9172 189.8C-29.1359 190.013 -29.3438 190.24 -29.5545 190.453C-29.9145 190.827 -30.2719 191.187 -30.6132 191.573C-30.8279 191.813 -31.0319 192.053 -31.2399 192.293C-31.5572 192.653 -31.8745 193.027 -32.1745 193.4C-32.3785 193.653 -32.5705 193.907 -32.7665 194.16C-33.0478 194.533 -33.3292 194.893 -33.5932 195.267C-33.7838 195.547 -33.9585 195.813 -34.1412 196.093C-34.3865 196.453 -34.6345 196.827 -34.8625 197.2C-35.0372 197.48 -35.1959 197.773 -35.3599 198.053C-35.5705 198.427 -35.7852 198.787 -35.9772 199.16C-36.1358 199.467 -36.2745 199.773 -36.4198 200.08C-36.5945 200.44 -36.7772 200.8 -36.9358 201.173C-37.0732 201.493 -37.1892 201.813 -37.3145 202.147C-37.4545 202.507 -37.6039 202.867 -37.7292 203.227C-37.8465 203.573 -37.9412 203.92 -38.0452 204.267C-38.1492 204.613 -38.2639 204.96 -38.3545 205.307C-38.4532 205.693 -38.5252 206.08 -38.6065 206.48C-38.6719 206.8 -38.7519 207.107 -38.8065 207.427C-38.8852 207.893 -38.9345 208.36 -38.9879 208.827C-39.0172 209.08 -39.0612 209.333 -39.0825 209.587C-39.1438 210.307 -39.1772 211.04 -39.1772 211.773C-39.1772 214.32 -38.7971 216.813 -38.0718 219.24C-38.0598 219.28 -38.0425 219.32 -38.0305 219.36C-36.8145 223.36 -34.6599 227.173 -31.7012 230.707C-36.4319 231.053 -41.0238 231.547 -45.4638 232.133C-66.4585 234.907 -83.8678 240.293 -94.5878 247.16C-101.981 251.907 -106.207 257.36 -106.207 263.16C-106.207 263.533 -106.142 263.893 -106.105 264.267C-106.066 264.653 -106.033 265.053 -105.954 265.44C-105.837 266.027 -105.695 266.6 -105.499 267.173C-107.884 268.093 -110.169 269.08 -112.404 270.08C-117.674 272.453 -122.545 275.04 -126.906 277.84C-130.001 275.427 -133.414 273.16 -137.072 271.067C-137.244 270.973 -137.409 270.867 -137.583 270.773C-138.609 270.187 -139.668 269.627 -140.735 269.08C-141.021 268.92 -141.299 268.773 -141.589 268.627C-142.629 268.093 -143.698 267.587 -144.774 267.093C-145.105 266.933 -145.428 266.773 -145.761 266.627C-146.861 266.12 -147.988 265.653 -149.124 265.173C-149.443 265.04 -149.756 264.907 -150.077 264.773C-151.284 264.293 -152.516 263.827 -153.759 263.36C-154.009 263.28 -154.256 263.173 -154.508 263.093C-155.882 262.6 -157.281 262.12 -158.699 261.667C-158.771 261.64 -158.841 261.613 -158.915 261.6C-158.947 261.587 -158.98 261.573 -159.012 261.573C-160.488 261.093 -161.988 260.653 -163.506 260.227C-163.798 260.147 -164.088 260.067 -164.382 259.987C-165.727 259.613 -167.091 259.28 -168.465 258.947C-168.915 258.84 -169.357 258.72 -169.809 258.627C-171.076 258.333 -172.36 258.067 -173.65 257.813C-174.205 257.693 -174.753 257.573 -175.312 257.467C-176.559 257.24 -177.821 257.027 -179.088 256.827C-179.692 256.733 -180.289 256.613 -180.899 256.533C-182.203 256.333 -183.525 256.173 -184.85 256C-185.425 255.933 -185.993 255.853 -186.572 255.787C-188.062 255.627 -189.57 255.493 -191.083 255.36C-191.505 255.333 -191.92 255.28 -192.342 255.253C-196.269 254.96 -200.265 254.8 -204.323 254.8C-206.46 254.8 -208.574 254.867 -210.678 254.947C-210.936 254.947 -211.193 254.96 -211.451 254.973C-213.531 255.067 -215.593 255.187 -217.635 255.36C-217.793 255.373 -217.95 255.387 -218.109 255.4C-220.172 255.573 -222.217 255.787 -224.237 256.04C-224.28 256.053 -224.323 256.053 -224.364 256.053C-226.401 256.32 -228.409 256.613 -230.397 256.947C-230.611 256.987 -230.823 257.027 -231.035 257.053C-235.048 257.747 -238.957 258.587 -242.744 259.573C-242.846 259.6 -242.951 259.627 -243.053 259.653C-244.951 260.147 -246.817 260.68 -248.65 261.24C-248.745 261.267 -248.837 261.307 -248.931 261.333C-253.489 262.747 -257.842 264.373 -261.953 266.2C-262.197 266.307 -262.437 266.413 -262.678 266.52C-263.61 266.947 -264.53 267.373 -265.437 267.813C-265.754 267.973 -266.07 268.12 -266.384 268.28C-267.221 268.693 -268.045 269.12 -268.859 269.547C-269.172 269.72 -269.489 269.88 -269.799 270.053C-270.68 270.533 -271.543 271.027 -272.393 271.52C-272.6 271.64 -272.813 271.76 -273.017 271.88C-274.058 272.507 -275.078 273.147 -276.073 273.787C-276.302 273.947 -276.518 274.093 -276.745 274.24C-277.492 274.747 -278.23 275.24 -278.949 275.76C-279.3 276.013 -279.638 276.267 -279.981 276.52C-280.562 276.947 -281.137 277.373 -281.697 277.813C-282.059 278.093 -282.413 278.373 -282.767 278.667C-283.3 279.093 -283.821 279.533 -284.335 279.973C-284.669 280.253 -285.004 280.547 -285.331 280.827C-285.876 281.32 -286.403 281.813 -286.925 282.307C-287.188 282.547 -287.46 282.8 -287.717 283.053C-288.473 283.787 -289.208 284.547 -289.912 285.307C-290.048 285.453 -290.173 285.613 -290.308 285.76C-290.878 286.387 -291.436 287.027 -291.969 287.667C-292.197 287.947 -292.412 288.227 -292.633 288.507C-293.057 289.027 -293.473 289.573 -293.872 290.107C-294.093 290.413 -294.309 290.72 -294.522 291.013C-294.902 291.56 -295.269 292.107 -295.624 292.653C-295.814 292.947 -296.005 293.24 -296.188 293.533C-296.562 294.147 -296.916 294.76 -297.258 295.373C-297.392 295.613 -297.532 295.853 -297.66 296.093C-298.121 296.96 -298.558 297.827 -298.956 298.72C-329.164 299.533 -354.422 302.68 -367.26 306.96C-373.098 308.907 -376.369 311.093 -376.369 313.4C-376.369 319.88 -350.369 325.4 -314.129 327.44C-310.776 327.627 -307.312 327.773 -303.799 327.893C-288.319 311.76 -266.909 302.44 -245.523 296.253C-225.225 290.387 -202.956 288.387 -182.229 293.08C-164.167 297.173 -147.387 302.787 -131.185 310.4C-121.825 299.08 -106.861 293.04 -90.8798 293.04C-85.1692 293.04 -79.8052 294.453 -74.9452 296.893C-75.0132 295.093 -74.9812 293.32 -74.8158 291.56C-72.3105 264.96 -49.8145 250.24 -24.8572 250.24C-17.5959 250.24 -10.8918 252.52 -5.07718 256.307C-6.3345 251.373 -6.80917 246.307 -6.34918 241.427C-3.84384 214.827 18.6522 200.12 43.6095 200.12C46.9482 200.12 50.1668 200.613 53.2401 201.493C97.5308 143.613 173.689 113.107 247.121 108.133C296.705 104.773 346.354 107.573 393.805 123.613C403.22 126.787 412.355 130.467 421.207 134.613C430.384 127.067 442.672 123.093 455.632 123.093C466.895 123.093 476.824 128.56 484.147 136.653C527.195 130.973 574.628 128.8 599.079 172.28C606.848 186.107 604.615 202.88 596.489 215.893C605.551 216.627 614.608 217.827 623.615 219.347C639.581 222.067 656.791 224.333 672.049 229.693C688.715 235.56 702.328 244.813 714.981 256.853C728.808 270.027 738.075 288.24 742.195 307.36Z" fill="white"/>
<path d="M166.132 201.347C166.132 201.347 312.09 248.2 393.314 155.28C393.314 155.28 283.198 224.187 166.132 201.347Z" fill="#B5D7F7"/>
<path d="M311.93 298.24C311.93 298.24 277.084 355.787 217.787 355.787C217.787 355.787 300.926 383.293 370.615 342.947C370.615 342.947 292.979 362.333 311.93 298.24Z" fill="#E9F6FC"/>
</svg>
