<svg width="1348" height="380" viewBox="0 0 1348 380" fill="none" xmlns="http://www.w3.org/2000/svg">
<path d="M1267.7 328.653C1284.82 320.147 1294.94 309.747 1294.94 298.507C1294.94 269.813 1229.22 246.533 1148.16 246.533C1123.25 246.533 1099.79 248.747 1079.24 252.627C1085.67 242.92 1089.24 232.307 1089.24 221.187C1089.24 219.747 1089.18 218.32 1089.07 216.907C1129.02 208.32 1157.17 187.773 1157.17 163.787C1157.17 132.08 1108.05 106.373 1047.44 106.373C1021.24 106.373 997.189 111.187 978.32 119.2C944.788 49.44 861.091 0 763.135 0C643.241 0 544.705 74.0667 533.376 168.8C531.955 168.76 530.524 168.72 529.081 168.72C488.621 168.72 455.824 188 455.824 211.76C455.824 218.573 458.519 225 463.301 230.72C420.772 233.827 388.793 247.16 388.793 263.16C388.793 264.52 389.052 265.867 389.503 267.173C381.496 270.267 374.304 273.853 368.093 277.84C350.14 263.827 322.149 254.8 290.677 254.8C245.455 254.8 207.401 273.413 196.04 298.72C152.103 299.907 118.631 306.027 118.631 313.4C118.631 320.707 151.649 326.787 195.144 328.04C195.995 330.253 197.033 332.44 198.279 334.547C84.4613 336.707 0 344.613 0 354.053C0 365.133 116.593 374.12 260.417 374.12C268.82 374.12 277.124 374.093 285.321 374.04C287.096 374.093 288.88 374.12 290.677 374.12C293.393 374.12 296.076 374.04 298.736 373.907C343.384 373.4 384.336 372.027 418.592 370C432.088 372.653 446.771 374.12 462.151 374.12C489.168 374.12 514.076 369.627 534.068 362.04C540.08 362.747 546.283 363.12 552.636 363.12C568.4 363.12 583.271 360.84 596.423 356.813C605.743 360.76 617.523 363.12 630.344 363.12C643.552 363.12 655.664 360.627 665.111 356.453C694.867 367.787 728.084 374.12 763.135 374.12C801.665 374.12 837.983 366.467 869.917 352.947C883.525 368.68 913.527 379.627 948.376 379.627C996.016 379.627 1034.63 359.187 1034.63 333.973C1034.63 333.107 1034.58 332.24 1034.49 331.387C1061.4 343.04 1102.32 350.48 1148.16 350.48C1161.17 350.48 1173.78 349.88 1185.79 348.747C1191.49 356.92 1219.62 363.12 1253.49 363.12C1291.47 363.12 1322.26 355.32 1322.26 345.693C1322.26 337.307 1298.86 330.307 1267.7 328.653Z" fill="#E9F6FC"/>
<path d="M1322.26 345.693C1322.26 345.773 1322.26 345.867 1322.25 345.933C1321.75 355.453 1291.14 363.12 1253.49 363.12C1219.62 363.12 1191.49 356.92 1185.78 348.747C1173.79 349.88 1161.17 350.48 1148.17 350.48C1102.32 350.48 1061.41 343.04 1034.48 331.373C1034.57 332.24 1034.63 333.107 1034.63 333.987C1034.63 359.2 996.007 379.627 948.38 379.627C913.535 379.627 883.532 368.68 869.924 352.947C837.977 366.467 801.665 374.12 763.135 374.12C728.088 374.12 694.857 367.787 665.111 356.467C655.667 360.627 643.544 363.12 630.34 363.12C617.52 363.12 605.747 360.76 596.431 356.813C583.263 360.853 568.408 363.12 552.636 363.12C546.291 363.12 540.073 362.733 534.077 362.04C514.068 369.613 489.164 374.12 462.151 374.12C446.764 374.12 432.092 372.653 418.595 370C384.336 372.013 343.385 373.387 298.728 373.907C296.069 374.04 293.392 374.12 290.677 374.12C288.88 374.12 287.101 374.093 285.323 374.04C277.125 374.093 268.817 374.12 260.417 374.12C116.601 374.12 0 365.133 0 354.04C0 350.907 9.29733 347.96 25.8947 345.32C59.2907 340 122.232 335.987 198.284 334.547C197.037 332.44 195.992 330.253 195.148 328.04C151.648 326.787 118.637 320.707 118.637 313.387C118.637 306.027 152.107 299.907 196.047 298.72C202.815 283.64 219.044 270.947 240.629 263.16C255.796 265.16 269.515 268.173 281.087 271.973C295.831 267 314.757 263.32 336.085 261.6C348.575 265.56 359.487 271.133 368.088 277.84C374.305 273.84 381.493 270.267 389.508 267.173C389.049 265.867 388.793 264.533 388.793 263.16C388.793 247.16 420.777 233.827 463.305 230.707C458.519 224.987 455.823 218.573 455.823 211.773C455.823 200.213 463.58 189.707 476.216 181.987C491.988 182.88 506.88 185.32 520.304 188.987C531.62 175.853 549.152 164.787 570.719 157.027C560.008 146.427 551.793 134.613 546.639 122C579.247 50.7733 663.864 0 763.135 0C800.584 0 835.941 7.22667 867.228 20.0667C889.272 39.8667 902.293 64.3199 902.293 90.7866C902.293 97.0932 901.541 103.267 900.129 109.32C913.535 103.493 928.317 100.267 943.868 100.267C952.727 100.267 961.345 101.307 969.599 103.307C972.808 108.48 975.724 113.787 978.328 119.213C983.701 116.92 989.496 114.893 995.64 113.2C1030.3 131.693 1053.9 168.253 1053.9 210.307C1053.9 212.173 1053.85 214.04 1053.76 215.893C1074.28 209.293 1099.31 204.853 1126.73 203.44C1116.2 209.213 1103.4 213.827 1089.06 216.907C1089.19 218.32 1089.24 219.747 1089.24 221.2C1089.24 232.307 1085.67 242.907 1079.23 252.627C1099.79 248.747 1123.25 246.533 1148.17 246.533C1210.59 246.533 1263.93 260.347 1285.13 279.813C1287.25 281.733 1289.05 283.733 1290.5 285.787C1293.39 289.853 1294.94 294.107 1294.94 298.507C1294.94 309.76 1284.83 320.16 1267.7 328.64C1298.86 330.32 1322.26 337.32 1322.26 345.693Z" fill="#B5D7F7"/>
<path d="M1347.33 319.707C1347.33 330.187 1337.61 339.573 1322.25 345.933C1309.35 351.307 1292.46 354.56 1273.98 354.56C1233.46 354.56 1200.62 338.974 1200.62 319.707C1200.62 318.454 1200.77 317.2 1201.04 315.987C1183.93 318.774 1165.22 320.334 1145.6 320.334C1091.34 320.334 1043.98 308.547 1018.6 291.027C998.978 309.2 972.735 320.334 943.868 320.334C883.092 320.334 833.834 271.054 833.834 210.307C833.834 200.694 835.062 191.374 837.372 182.48C820.096 192.04 800.088 199.48 778.228 204.267C780.998 210.507 782.483 217.014 782.483 223.747C782.483 267.294 720.624 302.6 644.315 302.6C636.631 302.6 629.111 302.214 621.758 301.534C611.359 307.094 599.475 310.254 586.858 310.254C570.059 310.254 554.562 304.654 542.128 295.267C539.818 296.254 537.451 297.187 535.012 298.107C537.671 302.267 539.175 306.894 539.175 311.774C539.175 330 518.379 344.787 492.722 344.787C472.732 344.787 455.676 335.814 449.13 323.214C447.644 323.734 446.122 324.227 444.544 324.72C445.663 326.934 446.25 329.254 446.25 331.64C446.25 347.68 419.714 360.68 386.959 360.68C355.159 360.68 329.227 348.427 327.742 333.027C316.042 331.76 305.166 329.907 295.483 327.56C292.146 329.134 288.496 330.627 284.571 332.04C286.368 333.574 287.322 335.187 287.322 336.84C287.322 350.014 226.82 360.68 152.216 360.68C94.5204 360.68 45.2427 354.307 25.8947 345.32C59.2907 340 122.232 335.987 198.284 334.547C197.037 332.44 195.992 330.253 195.148 328.04C151.648 326.787 118.637 320.707 118.637 313.387C118.637 306.027 152.107 299.907 196.047 298.72C202.815 283.64 219.044 270.947 240.629 263.16C255.796 265.16 269.515 268.173 281.087 271.973C295.831 267 314.757 263.32 336.085 261.6C348.575 265.56 359.487 271.133 368.088 277.84C374.305 273.84 381.493 270.267 389.508 267.173C389.049 265.867 388.793 264.533 388.793 263.16C388.793 247.16 420.777 233.827 463.305 230.707C458.519 224.987 455.823 218.573 455.823 211.773C455.823 200.213 463.58 189.707 476.216 181.987C491.988 182.88 506.88 185.32 520.304 188.987C531.62 175.853 549.152 164.787 570.719 157.027C560.008 146.427 551.793 134.613 546.639 122C579.247 50.7733 663.864 0 763.135 0C800.584 0 835.941 7.22667 867.228 20.0667C889.272 39.8667 902.293 64.3199 902.293 90.7866C902.293 97.0932 901.541 103.267 900.129 109.32C913.535 103.493 928.317 100.267 943.868 100.267C952.727 100.267 961.345 101.307 969.599 103.307C978.787 105.493 987.516 108.827 995.64 113.2C1030.3 131.693 1053.9 168.253 1053.9 210.307C1053.9 212.173 1053.85 214.04 1053.76 215.893C1074.28 209.293 1099.31 204.853 1126.73 203.44C1132.91 203.133 1139.2 202.96 1145.6 202.96C1226.62 202.96 1292.32 229.227 1292.32 261.654C1292.32 268 1289.78 274.08 1285.13 279.813C1283.67 281.587 1282.02 283.334 1280.2 285.014C1283.7 285.16 1287.14 285.413 1290.5 285.787C1323.05 289.32 1347.33 303.174 1347.33 319.707Z" fill="#E9F6FC"/>
<path d="M1237.19 307.36C1265.67 296.787 1299.41 291.987 1329.86 297.16C1319.82 291.56 1306.11 287.48 1290.5 285.787C1290.47 285.747 1290.45 285.707 1290.42 285.68C1290.3 285.52 1290.18 285.36 1290.06 285.214C1289.58 284.56 1289.06 283.907 1288.5 283.267C1288.42 283.16 1288.34 283.067 1288.25 282.96C1287.65 282.28 1286.99 281.6 1286.3 280.934C1286.06 280.68 1285.79 280.44 1285.53 280.187C1285.39 280.067 1285.26 279.933 1285.13 279.813C1289.78 274.08 1292.32 268 1292.32 261.654C1292.32 229.227 1226.62 202.96 1145.6 202.96C1139.2 202.96 1132.91 203.134 1126.73 203.44C1145.58 193.134 1157.17 179.173 1157.17 163.787C1157.17 132.08 1108.05 106.373 1047.44 106.373C1028.69 106.373 1011.06 108.853 995.625 113.187C987.504 108.827 978.781 105.493 969.599 103.307C969.583 103.307 969.567 103.307 969.551 103.293C947.357 67.4668 911.393 38.2001 867.26 20.0935C867.249 20.0935 867.239 20.08 867.228 20.0667C867.013 19.9733 866.793 19.8935 866.579 19.8135C865.501 19.3735 864.414 18.9468 863.326 18.5202C862.066 18.0268 860.799 17.5469 859.524 17.0669C858.461 16.6669 857.399 16.2801 856.327 15.8935C854.815 15.3468 853.291 14.8268 851.763 14.3202C850.928 14.0268 850.1 13.7336 849.26 13.4669C846.996 12.7202 844.712 12.0269 842.415 11.3336C841.504 11.0669 840.585 10.8135 839.671 10.5601C838.085 10.1068 836.495 9.66688 834.895 9.24021C833.936 8.98688 832.977 8.73347 832.015 8.49347C830.264 8.05347 828.503 7.62686 826.735 7.21352C825.977 7.04019 825.226 6.85352 824.464 6.68019C821.988 6.13352 819.495 5.61357 816.987 5.13357C816.293 5.00024 815.595 4.88019 814.899 4.74686C812.983 4.38686 811.06 4.05357 809.125 3.73357C808.239 3.58691 807.349 3.45355 806.457 3.30688C804.563 3.02688 802.659 2.7468 800.747 2.49347C799.983 2.40014 799.223 2.28016 798.457 2.18683C795.821 1.86683 793.172 1.56021 790.508 1.30688C790.078 1.26688 789.643 1.24024 789.211 1.20024C786.947 0.986908 784.673 0.813496 782.389 0.653496C781.529 0.600163 780.667 0.560215 779.803 0.506882C777.837 0.386882 775.864 0.29347 773.884 0.226804C773.056 0.186804 772.229 0.160241 771.399 0.133574C768.655 0.0535744 765.903 0 763.135 0C760.348 0 757.576 0.0535744 754.813 0.133574C754.285 0.146908 753.756 0.160163 753.228 0.18683C750.571 0.26683 747.924 0.400137 745.291 0.560137C744.781 0.600137 744.275 0.626908 743.768 0.666908C741.133 0.840241 738.509 1.05347 735.901 1.29347C735.787 1.3068 735.671 1.32016 735.557 1.32016C732.887 1.58683 730.236 1.89352 727.595 2.21352C727.056 2.29352 726.519 2.36014 725.983 2.4268C723.427 2.76014 720.885 3.12024 718.359 3.53357C717.865 3.60024 717.375 3.69355 716.883 3.77355C714.439 4.17355 712.008 4.60024 709.593 5.06691C709.373 5.10691 709.151 5.14683 708.929 5.18683C706.404 5.68016 703.899 6.21355 701.407 6.77355C700.852 6.90688 700.299 7.0268 699.747 7.16014C697.32 7.72014 694.907 8.30683 692.512 8.92016C692.033 9.0535 691.557 9.18688 691.079 9.30688C688.835 9.90688 686.603 10.5335 684.389 11.1735C684.075 11.2669 683.756 11.3602 683.44 11.4535C681.077 12.1602 678.736 12.9069 676.409 13.6669C675.847 13.8536 675.283 14.0401 674.721 14.2268C672.441 14.9868 670.177 15.7869 667.936 16.6002C667.467 16.7736 667.004 16.9602 666.537 17.1336C664.487 17.8936 662.453 18.6935 660.437 19.4935C660.057 19.6535 659.673 19.8001 659.295 19.9601C657.103 20.8535 654.935 21.7869 652.784 22.7336C652.22 22.9869 651.659 23.2269 651.099 23.4802C648.976 24.4402 646.872 25.4135 644.792 26.4268C644.354 26.6401 643.92 26.8535 643.483 27.0802C641.616 27.9869 639.768 28.9335 637.937 29.8935C637.516 30.1068 637.092 30.3202 636.673 30.5469C634.661 31.6135 632.676 32.7202 630.708 33.8402C630.162 34.1469 629.617 34.4669 629.075 34.7735C627.123 35.9069 625.19 37.0535 623.284 38.2268C622.879 38.4801 622.482 38.7335 622.078 38.9868C620.39 40.0535 618.72 41.1202 617.071 42.2135C616.637 42.5069 616.2 42.7869 615.771 43.0802C613.941 44.3069 612.14 45.5602 610.36 46.8402C609.853 47.2002 609.349 47.5736 608.845 47.9336C607.067 49.2269 605.306 50.5469 603.576 51.8802C603.232 52.1469 602.895 52.4268 602.552 52.6935C601.021 53.8935 599.512 55.1202 598.023 56.3469C597.608 56.6935 597.189 57.0402 596.779 57.3868C595.137 58.7602 593.525 60.1735 591.936 61.5868C591.483 62.0002 591.035 62.4002 590.587 62.8135C588.989 64.2669 587.411 65.7335 585.87 67.2268C585.599 67.4935 585.337 67.7601 585.068 68.0268C583.685 69.3868 582.328 70.7602 580.992 72.1469C580.623 72.5335 580.248 72.9202 579.881 73.3069C578.432 74.8269 577.015 76.3869 575.623 77.9469C575.243 78.3869 574.867 78.8135 574.491 79.2402C573.083 80.8535 571.693 82.4802 570.348 84.1336C570.168 84.3602 569.996 84.5869 569.816 84.8002C568.577 86.3469 567.368 87.8936 566.184 89.4669C565.875 89.8669 565.563 90.2802 565.259 90.6802C564.012 92.3602 562.799 94.0535 561.615 95.7735C561.319 96.2002 561.028 96.6269 560.736 97.0669C559.54 98.8269 558.367 100.6 557.24 102.387C557.146 102.547 557.055 102.694 556.961 102.84C555.871 104.6 554.821 106.36 553.797 108.147C553.561 108.56 553.321 108.96 553.089 109.374C552.06 111.2 551.065 113.04 550.107 114.893C549.899 115.307 549.698 115.707 549.492 116.12C548.532 118.013 547.599 119.92 546.716 121.84C546.691 121.894 546.664 121.947 546.639 122L546.64 122C539.86 136.814 535.327 152.493 533.376 168.8C531.955 168.76 530.524 168.72 529.081 168.72C508.299 168.72 489.552 173.813 476.22 181.987C476.219 181.987 476.217 181.987 476.216 181.987C476.183 182 476.152 182.027 476.119 182.053C475.416 182.48 474.727 182.92 474.053 183.374C473.928 183.454 473.805 183.533 473.681 183.627C473.077 184.027 472.483 184.454 471.904 184.867C471.732 185 471.565 185.12 471.396 185.253C470.871 185.653 470.353 186.04 469.851 186.453C469.652 186.613 469.459 186.774 469.263 186.934C468.801 187.32 468.347 187.707 467.907 188.093C467.693 188.28 467.487 188.48 467.279 188.667C466.872 189.04 466.469 189.414 466.083 189.8C465.864 190.014 465.656 190.24 465.445 190.453C465.085 190.827 464.728 191.187 464.387 191.574C464.172 191.814 463.968 192.053 463.76 192.293C463.443 192.653 463.126 193.027 462.826 193.4C462.622 193.654 462.43 193.907 462.234 194.16C461.952 194.533 461.671 194.894 461.407 195.267C461.216 195.547 461.041 195.813 460.859 196.093C460.613 196.453 460.365 196.827 460.137 197.2C459.963 197.48 459.804 197.773 459.64 198.053C459.429 198.427 459.215 198.787 459.023 199.16C458.864 199.467 458.726 199.774 458.58 200.08C458.406 200.44 458.223 200.8 458.064 201.174C457.927 201.494 457.811 201.814 457.685 202.147C457.545 202.507 457.396 202.867 457.271 203.227C457.153 203.573 457.059 203.92 456.955 204.267C456.851 204.614 456.736 204.96 456.645 205.307C456.547 205.694 456.475 206.08 456.393 206.48C456.328 206.8 456.248 207.107 456.193 207.427C456.115 207.893 456.065 208.36 456.012 208.827C455.983 209.08 455.939 209.333 455.917 209.587C455.856 210.307 455.823 211.04 455.823 211.773C455.823 214.32 456.203 216.814 456.928 219.24C456.94 219.28 456.958 219.32 456.97 219.36C458.186 223.36 460.34 227.174 463.299 230.707C458.568 231.054 453.976 231.547 449.536 232.134C428.541 234.907 411.132 240.293 400.412 247.16C393.019 251.907 388.793 257.36 388.793 263.16C388.793 263.533 388.858 263.894 388.895 264.267C388.934 264.654 388.967 265.054 389.046 265.44C389.163 266.027 389.305 266.6 389.501 267.174C387.116 268.094 384.831 269.08 382.596 270.08C377.325 272.454 372.455 275.04 368.093 277.84C364.999 275.427 361.585 273.16 357.928 271.067C357.756 270.974 357.591 270.867 357.418 270.774C356.391 270.187 355.332 269.627 354.265 269.08C353.979 268.92 353.701 268.773 353.411 268.627C352.371 268.093 351.301 267.587 350.225 267.093C349.895 266.933 349.572 266.773 349.239 266.627C348.139 266.12 347.012 265.654 345.876 265.174C345.557 265.04 345.244 264.907 344.923 264.774C343.716 264.294 342.484 263.827 341.241 263.36C340.991 263.28 340.744 263.173 340.492 263.093C339.118 262.6 337.719 262.12 336.301 261.667C336.229 261.64 336.159 261.613 336.085 261.6C336.053 261.587 336.02 261.574 335.988 261.574C334.512 261.094 333.012 260.653 331.493 260.227C331.201 260.147 330.912 260.067 330.617 259.987C329.273 259.613 327.909 259.28 326.535 258.947C326.085 258.84 325.643 258.72 325.191 258.627C323.924 258.333 322.64 258.067 321.349 257.814C320.795 257.694 320.247 257.574 319.688 257.467C318.442 257.24 317.179 257.027 315.912 256.827C315.308 256.733 314.711 256.614 314.101 256.534C312.797 256.334 311.475 256.174 310.15 256C309.575 255.934 309.007 255.853 308.428 255.787C306.938 255.627 305.43 255.493 303.918 255.36C303.495 255.333 303.08 255.28 302.658 255.253C298.731 254.96 294.735 254.8 290.677 254.8C288.54 254.8 286.426 254.867 284.322 254.947C284.064 254.947 283.807 254.96 283.549 254.974C281.469 255.067 279.407 255.187 277.365 255.36C277.207 255.373 277.05 255.387 276.891 255.4C274.828 255.574 272.783 255.787 270.763 256.04C270.72 256.054 270.678 256.053 270.636 256.053C268.599 256.32 266.591 256.614 264.603 256.947C264.389 256.987 264.177 257.027 263.965 257.053C259.952 257.747 256.043 258.587 252.256 259.574C252.154 259.6 252.05 259.627 251.947 259.653C250.05 260.147 248.183 260.68 246.35 261.24C246.255 261.267 246.163 261.307 246.069 261.334C241.511 262.747 237.157 264.374 233.047 266.2C232.803 266.307 232.563 266.413 232.322 266.52C231.39 266.947 230.47 267.374 229.563 267.814C229.246 267.974 228.929 268.12 228.616 268.28C227.779 268.694 226.955 269.12 226.141 269.547C225.828 269.72 225.511 269.88 225.201 270.053C224.32 270.533 223.457 271.027 222.607 271.52C222.4 271.64 222.187 271.76 221.983 271.88C220.942 272.507 219.922 273.147 218.927 273.787C218.698 273.947 218.482 274.094 218.255 274.24C217.508 274.747 216.77 275.24 216.051 275.76C215.7 276.013 215.362 276.267 215.019 276.52C214.438 276.947 213.863 277.374 213.303 277.814C212.941 278.094 212.587 278.374 212.233 278.667C211.7 279.094 211.179 279.534 210.665 279.974C210.331 280.254 209.996 280.547 209.669 280.827C209.124 281.32 208.597 281.814 208.075 282.307C207.812 282.547 207.54 282.8 207.283 283.053C206.527 283.787 205.792 284.547 205.088 285.307C204.952 285.454 204.827 285.613 204.692 285.76C204.122 286.387 203.564 287.027 203.031 287.667C202.803 287.947 202.588 288.227 202.367 288.507C201.943 289.027 201.527 289.574 201.128 290.107C200.907 290.414 200.691 290.72 200.478 291.014C200.098 291.56 199.731 292.107 199.376 292.653C199.185 292.947 198.995 293.24 198.812 293.534C198.437 294.147 198.084 294.76 197.742 295.374C197.608 295.614 197.468 295.853 197.34 296.093C196.879 296.96 196.442 297.827 196.044 298.72C165.836 299.533 140.577 302.68 127.74 306.96C121.901 308.907 118.631 311.093 118.631 313.4C118.631 319.88 144.631 325.4 180.871 327.44C184.224 327.627 187.688 327.773 191.201 327.893C206.681 311.76 228.091 302.44 249.477 296.253C269.775 290.387 292.044 288.387 312.771 293.08C330.833 297.174 347.613 302.787 363.815 310.4C373.175 299.08 388.139 293.04 404.12 293.04C409.831 293.04 415.195 294.453 420.055 296.893C419.987 295.093 420.019 293.32 420.184 291.56C422.69 264.96 445.185 250.24 470.143 250.24C477.404 250.24 484.108 252.52 489.923 256.307C488.665 251.374 488.191 246.307 488.651 241.427C491.156 214.827 513.652 200.12 538.609 200.12C541.948 200.12 545.167 200.613 548.24 201.493C592.531 143.613 668.689 113.107 742.121 108.134C791.705 104.774 841.353 107.574 888.805 123.614C898.22 126.787 907.355 130.467 916.207 134.614C925.384 127.067 937.672 123.093 950.632 123.093C961.895 123.093 971.824 128.56 979.147 136.653C1022.19 130.973 1069.63 128.8 1094.08 172.28C1101.85 186.107 1099.61 202.88 1091.49 215.893C1100.55 216.627 1109.61 217.827 1118.61 219.347C1134.58 222.067 1151.79 224.333 1167.05 229.693C1183.71 235.56 1197.33 244.813 1209.98 256.853C1223.81 270.027 1233.07 288.24 1237.19 307.36Z" fill="white"/>
<path d="M661.132 201.347C661.132 201.347 807.09 248.2 888.314 155.28C888.314 155.28 778.198 224.187 661.132 201.347Z" fill="#B5D7F7"/>
<path d="M403.54 334.8C403.54 334.8 458.299 346.627 479.971 305.307C479.971 305.307 449.997 326.253 403.54 334.8Z" fill="#B5D7F7"/>
<path d="M255.112 320.867C255.112 320.867 311.007 362.267 356.774 326.987C356.774 326.987 312.084 335.12 255.112 320.867Z" fill="#B5D7F7"/>
<path d="M806.93 298.24C806.93 298.24 772.084 355.787 712.787 355.787C712.787 355.787 795.926 383.294 865.615 342.947C865.615 342.947 787.979 362.334 806.93 298.24Z" fill="#E9F6FC"/>
</svg>
