<svg width="970" height="406" viewBox="0 0 970 406" fill="none" xmlns="http://www.w3.org/2000/svg">
<path d="M72.2356 145.655C89.9398 125.197 102.268 110.951 107.057 98.7985C106.516 94.6819 104.786 85.8312 102.191 83.3612C98.9465 80.2738 97.3244 61.749 105.435 57.1179C113.545 52.4867 113.545 55.5741 120.033 52.4867C125.224 50.0167 128.685 46.3118 129.766 44.7681C133.551 43.2243 140.796 44.4593 139.498 61.749C136.254 66.3802 131.388 69.4677 133.01 74.0989C134.632 78.73 149.231 86.4487 152.475 94.1673C148.582 91.6973 146.527 93.1381 145.987 94.1673C149.771 98.2839 157.341 107.135 157.341 109.605H152.475C154.638 116.294 157.99 133.995 154.097 151.285C149.231 172.897 152.475 182.16 155.719 182.16C158.963 182.16 165.451 188.335 155.719 189.878C145.987 191.422 141.12 175.985 139.498 171.354C137.876 166.722 142.742 149.741 129.766 142.023C131.388 145.11 134.632 154.373 128.144 162.091C126.846 165.796 119.493 170.324 116.789 172.897C115.167 166.722 110.301 151.285 94.0803 152.829C102.191 152.829 126.522 175.985 105.435 186.791C88.5652 195.436 73.534 187.305 68.1271 182.16C68.1271 180.616 67.4783 178.455 64.883 182.16C64.883 189.57 49.7436 190.393 42.1739 189.878H27.5752C21.087 189.878 6.48829 190.496 0 192.966C14.5987 182.16 22.709 185.247 42.1739 182.16C56.4482 180.925 63.2609 173.412 64.883 169.81C64.3423 165.179 64.883 154.064 71.3713 146.654L72.2356 145.655Z" fill="#FAFFFF"/>
<path d="M128.144 186.791C128.144 190.496 116.249 190.393 110.301 189.878C107.057 191.422 111.923 181.431 115.167 182.16C118.411 182.888 128.144 182.16 128.144 186.791Z" fill="#FAFFFF"/>
<path d="M455.803 191.422V43.2243H488.244V60.2053C492.137 50.3255 501.221 41.6806 514.197 40.1369H527.174V83.3612C505.114 69.7764 494.192 85.9341 491.488 95.711V191.422H455.803Z" fill="white"/>
<path d="M575.836 0H536.906V191.422H575.836L574.214 128.129L608.278 191.422H647.207L605.033 111.148L643.963 43.2243H605.033C601.14 48.1643 583.946 83.3612 575.836 100.342V0Z" fill="white"/>
<path d="M686.137 194.509C653.696 187.1 642.341 156.431 640.719 142.023H679.649C678.351 152.218 682.893 160.548 691.003 162.091C726.04 163.326 716.956 132.76 697.492 132.76C691.003 132.76 674.783 128.129 665.05 121.954C630.013 102.195 643.963 57.1179 663.428 47.8555C674.783 41.6806 686.137 37.0494 712.09 40.1369C740.639 41.3719 749.939 71.526 751.02 86.4487H712.09C710.468 58.6616 681.271 69.4677 682.893 81.8175C684.515 89.5361 689.381 95.711 708.846 98.7985C741.288 102.503 751.561 127.1 752.642 138.935V155.916C747.451 181.851 726.689 194.509 702.358 194.509H686.137Z" fill="white"/>
<path d="M780.217 123.498L765.619 91.0798L786.706 92.6236L798.06 123.498H780.217Z" fill="#F5822B"/>
<path d="M882.408 123.498L895.385 92.6236L916.472 91.0798L900.251 123.498H882.408Z" fill="#F5822B"/>
<path d="M806.171 185.247V86.4487H827.258V95.711C846.722 72.2464 875.92 86.4487 877.542 104.973V185.247H851.589V118.867C848.344 103.43 832.124 108.061 832.124 118.867V185.247H806.171Z" fill="white"/>
<path d="M390.92 334.989C397.408 324.182 400.652 327.27 400.652 318.008C387.676 318.008 392.542 314.92 379.565 311.833C377.943 308.745 373.077 302.57 371.455 304.114C370.157 305.349 370.914 314.92 371.455 319.551C364.967 324.182 371.455 331.901 364.967 338.076C324.415 331.901 311.438 351.97 301.706 365.863C274.13 356.601 288.729 319.551 269.264 305.658C260.181 298.248 254.666 307.202 261.154 307.202C285.485 322.639 259.532 359.688 304.95 379.757C314.682 401.369 324.415 404.456 343.88 404.456C350.368 404.456 353.612 402.913 350.368 398.281C338.689 398.281 337.932 394.165 339.013 392.106C348.746 392.106 345.502 387.475 356.856 385.932C356.856 398.281 362.263 403.427 364.967 404.456C376.321 407.544 379.565 398.281 368.211 396.738C365.615 394.268 369.292 384.388 371.455 379.757C395.786 367.407 386.053 356.601 390.92 334.989Z" fill="#FAFFFF"/>
<path d="M686.137 401.369V253.171H718.579V270.152C722.472 260.272 731.555 251.627 744.532 250.084H757.508V293.308C735.448 279.723 724.526 295.881 721.823 305.658V401.369H686.137Z" fill="white"/>
<path d="M770.485 401.369V253.171H802.926V270.152C806.819 260.272 815.903 251.627 828.88 250.084H841.856V293.308C819.796 279.723 808.874 295.881 806.171 305.658V401.369H770.485Z" fill="white"/>
<path d="M903.495 404.456C871.053 397.046 859.699 366.378 858.077 351.97H897.007C895.709 362.165 900.251 370.494 908.361 372.038C943.398 373.273 934.314 342.707 914.849 342.707C908.361 342.707 892.14 338.076 882.408 331.901C847.371 312.141 861.321 267.065 880.786 257.802C892.14 251.627 903.495 246.996 929.448 250.084C957.997 251.319 967.296 281.473 968.378 296.395H929.448C927.826 268.608 898.629 279.414 900.251 291.764C901.873 299.483 906.739 305.658 926.204 308.745C958.645 312.45 968.919 337.047 970 348.882V365.863C964.809 391.798 944.047 404.456 919.716 404.456H903.495Z" fill="white"/>
<path d="M559.615 367.407V253.171H596.923V359.688C609.9 378.213 623.958 367.407 629.365 359.688V253.171H666.672V401.369H632.609C632.609 390.254 630.446 388.504 629.365 389.019C614.766 416.806 562.86 406 559.615 367.407Z" fill="white"/>
<path fill-rule="evenodd" clip-rule="evenodd" d="M397.408 189.878C397.949 186.791 398.381 179.998 395.786 177.529C392.542 183.703 381.187 192.966 376.321 192.966C371.455 194.509 360.1 194.51 353.612 191.422C353.173 191.213 352.675 190.99 352.125 190.744C344.543 187.351 327.11 179.55 319.548 143.567C317.926 131.217 317.926 115.779 319.548 91.0798C321.711 75.128 333.498 42.6068 363.344 40.1369C383.031 40.1369 388.913 47.2112 393.878 53.1828C395.049 54.5917 396.169 55.9391 397.408 57.1179C397.949 54.0304 398.706 46.9293 397.408 43.2243H429.849V191.422H397.408V189.878ZM381.187 103.43C375.997 120.719 376.862 135.333 377.943 140.479C386.053 151.285 379.565 155.916 377.943 155.916C376.321 155.916 371.455 155.916 371.455 157.46C371.455 159.004 364.967 163.635 361.722 160.548C358.478 157.46 355.234 154.373 355.234 149.741C355.234 146.154 357.181 144.419 361.074 140.95C362.206 139.94 363.504 138.783 364.967 137.392C367.622 127.281 369.191 113.032 370.563 100.574L370.565 100.557C370.868 97.8033 371.161 95.1376 371.455 92.6236C362.371 80.2738 369.833 77.1863 374.699 77.1863C375.24 77.7009 378.268 79.3475 386.054 81.8175C393.839 84.2874 390.379 91.0798 387.676 94.1673C383.065 97.0923 382.199 100.017 381.332 102.942C381.284 103.105 381.236 103.267 381.187 103.43Z" fill="white"/>
<path fill-rule="evenodd" clip-rule="evenodd" d="M181.672 189.878V0H259.532C319.224 16.0548 301.706 80.2738 266.02 86.4487C334.147 101.886 304.95 189.878 259.532 189.878H181.672ZM222.224 108.061V155.916H243.311C262.776 155.916 279.646 119.176 243.311 108.061H222.224ZM222.224 74.0989V33.962H238.445C270.886 37.0494 256.288 75.6426 238.445 74.0989H222.224Z" fill="white"/>
<path fill-rule="evenodd" clip-rule="evenodd" d="M423.361 406V213.034H496.355C545.017 213.034 579.405 310.598 496.355 336.532H465.535V406H423.361ZM496.355 307.202H457.425C450.937 307.202 460.128 299.997 465.535 296.395C452.559 288.677 465.535 287.133 470.401 293.308C485.196 286.268 490.545 293.354 495.063 299.34C495.499 299.917 495.927 300.484 496.355 301.027C524.903 271.387 502.843 247.303 483.378 245.452H457.425C453.532 242.983 455.803 240.307 457.425 239.278H483.378C533.662 250.084 515.819 299.483 496.355 307.202Z" fill="white"/>
<path d="M457.425 307.202H496.355C515.819 299.483 533.662 250.084 483.378 239.278H457.425C455.803 240.307 453.532 242.983 457.425 245.452H483.378C502.843 247.303 524.903 271.387 496.355 301.027C495.927 300.484 495.499 299.917 495.063 299.34C490.545 293.354 485.196 286.268 470.401 293.308C465.535 287.133 452.559 288.677 465.535 296.395C460.128 299.997 450.937 307.202 457.425 307.202Z" fill="#F5822B"/>
<path d="M377.943 140.479C376.862 135.333 375.997 120.719 381.187 103.43L381.332 102.942C382.199 100.017 383.065 97.0923 387.676 94.1673C390.379 91.0798 393.839 84.2874 386.054 81.8175C378.268 79.3475 375.24 77.7009 374.699 77.1863C369.833 77.1863 362.371 80.2738 371.455 92.6236C371.161 95.1376 370.868 97.8033 370.565 100.557L370.563 100.574C369.191 113.032 367.622 127.281 364.967 137.392C363.504 138.783 362.206 139.94 361.074 140.95C357.181 144.419 355.234 146.154 355.234 149.741C355.234 154.373 358.478 157.46 361.722 160.548C364.967 163.635 371.455 159.004 371.455 157.46C371.455 155.916 376.321 155.916 377.943 155.916C379.565 155.916 386.053 151.285 377.943 140.479Z" fill="#F5822B"/>
</svg>
