<svg width="173" height="90" viewBox="0 0 173 90" fill="none" xmlns="http://www.w3.org/2000/svg">
<path d="M12.8301 25.7226C15.9746 22.1097 18.1643 19.5939 19.0148 17.4477C18.9188 16.7207 18.6115 15.1577 18.1505 14.7215C17.5743 14.1763 17.2862 10.9048 18.7267 10.087C20.1672 9.2691 20.1672 9.81434 21.3196 9.2691C22.2416 8.83291 22.8562 8.17862 23.0483 7.906C23.7205 7.63338 25.0074 7.85147 24.7769 10.9048C24.2007 11.7227 23.3364 12.2679 23.6245 13.0858C23.9126 13.9037 26.5055 15.2668 27.0817 16.6299C26.3903 16.1937 26.0253 16.4481 25.9293 16.6299C26.6015 17.3568 27.946 18.9199 27.946 19.3561H27.0817C27.4658 20.5374 28.0613 23.6635 27.3698 26.7168C26.5055 30.5335 27.0817 32.1692 27.6579 32.1692C28.2341 32.1692 29.3865 33.2597 27.6579 33.5323C25.9293 33.805 25.065 31.0788 24.7769 30.2609C24.4888 29.443 25.3531 26.4442 23.0483 25.0811C23.3364 25.6263 23.9126 27.2621 22.7602 28.6252C22.5297 29.2795 21.2236 30.0791 20.7434 30.5335C20.4553 29.443 19.591 26.7168 16.71 26.9894C18.1505 26.9894 22.4721 31.0788 18.7267 32.9871C15.7304 34.5138 13.0607 33.078 12.1003 32.1692C12.1003 31.8966 11.9851 31.5149 11.5241 32.1692C11.5241 33.4778 8.83517 33.6232 7.49068 33.5323H4.89775C3.74534 33.5323 1.15241 33.6414 0 34.0776C2.59293 32.1692 4.03344 32.7145 7.49068 32.1692C10.026 31.9511 11.236 30.6244 11.5241 29.9883C11.4281 29.1704 11.5241 27.2075 12.6766 25.899L12.8301 25.7226Z" fill="#FAFFFF"/>
<path d="M22.7602 32.9871C22.7602 33.6414 20.6474 33.6232 19.591 33.5323C19.0148 33.805 19.8791 32.0405 20.4553 32.1692C21.0315 32.2979 22.7602 32.1692 22.7602 32.9871Z" fill="#FAFFFF"/>
<path d="M80.957 33.805V7.63338H86.7191V10.6322C87.4105 8.88743 89.0239 7.36076 91.3287 7.08814H93.6335V14.7215C89.7153 12.3225 87.7754 15.1759 87.2953 16.9025V33.805H80.957Z" fill="white"/>
<path d="M102.277 0H95.3622V33.805H102.277L101.989 22.6275L108.039 33.805H114.953L107.463 19.6287L114.377 7.63338H107.463C106.771 8.50576 103.717 14.7215 102.277 17.7203V0Z" fill="white"/>
<path d="M121.868 34.3502C116.106 33.0416 114.089 27.6256 113.801 25.0811H120.715C120.485 26.8816 121.291 28.3525 122.732 28.6252C128.955 28.8433 127.342 23.4454 123.884 23.4454C122.732 23.4454 119.851 22.6275 118.122 21.537C111.899 18.0475 114.377 10.087 117.834 8.45124C119.851 7.36076 121.868 6.5429 126.477 7.08814C131.548 7.30623 133.2 12.6314 133.392 15.2668H126.477C126.189 10.3596 121.003 12.2679 121.291 14.4489C121.58 15.812 122.444 16.9025 125.901 17.4477C131.663 18.102 133.488 22.4458 133.68 24.5359V27.5347C132.758 32.1147 129.07 34.3502 124.749 34.3502H121.868Z" fill="white"/>
<path d="M138.578 21.8097L135.985 16.0846L139.73 16.3572L141.747 21.8097H138.578Z" fill="#F5822B"/>
<path d="M156.728 21.8097L159.033 16.3572L162.778 16.0846L159.897 21.8097H156.728Z" fill="#F5822B"/>
<path d="M143.187 32.7145V15.2668H146.933V16.9025C150.39 12.7586 155.576 15.2668 155.864 18.5382V32.7145H151.254V20.9918C150.678 18.2656 147.797 19.0834 147.797 20.9918V32.7145H143.187Z" fill="white"/>
<path d="M69.4329 59.1587C70.5853 57.2503 71.1615 57.7956 71.1615 56.1599C68.8567 56.1599 69.721 55.6146 67.4162 55.0694C67.128 54.5241 66.2637 53.4336 65.9756 53.7063C65.7452 53.9244 65.8796 55.6146 65.9756 56.4325C64.8232 57.2503 65.9756 58.6134 64.8232 59.7039C57.6206 58.6134 55.3158 62.1575 53.5872 64.6111C48.6894 62.9754 51.2824 56.4325 47.8251 53.9789C46.2118 52.6703 45.2322 54.2515 46.3846 54.2515C50.7062 56.9777 46.0965 63.5206 54.1634 67.0647C55.892 70.8814 57.6206 71.4266 61.0779 71.4266C62.2303 71.4266 62.8065 71.154 62.2303 70.3361C60.156 70.3361 60.0215 69.6091 60.2136 69.2456C61.9422 69.2456 61.366 68.4278 63.3827 68.1552C63.3827 70.3361 64.3431 71.2449 64.8232 71.4266C66.8399 71.9719 67.4162 70.3361 65.3994 70.0635C64.9385 69.6273 65.5915 67.8825 65.9756 67.0647C70.2972 64.8837 68.5686 62.9754 69.4329 59.1587Z" fill="#FAFFFF"/>
<path d="M121.868 70.8814V44.7098H127.63V47.7086C128.321 45.9638 129.935 44.4372 132.239 44.1645H134.544V51.7979C130.626 49.3989 128.686 52.2523 128.206 53.9789V70.8814H121.868Z" fill="white"/>
<path d="M136.849 70.8814V44.7098H142.611V47.7086C143.303 45.9638 144.916 44.4372 147.221 44.1645H149.526V51.7979C145.607 49.3989 143.667 52.2523 143.187 53.9789V70.8814H136.849Z" fill="white"/>
<path d="M160.473 71.4266C154.711 70.118 152.695 64.702 152.407 62.1575H159.321C159.091 63.958 159.897 65.429 161.338 65.7016C167.561 65.9197 165.947 60.5218 162.49 60.5218C161.338 60.5218 158.457 59.7039 156.728 58.6134C150.505 55.1239 152.983 47.1634 156.44 45.5277C158.457 44.4372 160.473 43.6193 165.083 44.1645C170.154 44.3826 171.806 49.7078 171.998 52.3432H165.083C164.795 47.436 159.609 49.3443 159.897 51.5253C160.185 52.8884 161.05 53.9789 164.507 54.5241C170.269 55.1784 172.094 59.5222 172.286 61.6123V64.6111C171.364 69.1911 167.676 71.4266 163.355 71.4266H160.473Z" fill="white"/>
<path d="M95.6503 88.0565V83.4219H93.6335V81.7862H95.0741C95.7655 80.4776 97.0908 79.787 97.667 79.6052V81.7862H99.6837V83.4219H97.667C97.667 88.6562 97.0908 88.3291 99.6837 88.3291C99.6837 90.7281 95.6503 89.6922 95.6503 88.0565Z" fill="white"/>
<path d="M127.054 89.4196V81.5136H129.358V82.6041C130.28 81.5136 131.471 81.6045 131.951 81.7862V83.4219C130.568 83.4219 129.839 84.5124 129.646 85.0576V89.4196H127.054Z" fill="white"/>
<path d="M132.527 83.1493V81.5136H135.12L136.849 87.2386L138.866 81.5136H141.171V82.8767L138.29 89.6922H135.409L132.527 83.1493Z" fill="white"/>
<path d="M142.611 89.4196V81.7862H144.916V89.4196H142.611Z" fill="white"/>
<path d="M145.204 80.1505H142.611V78.5147H145.204V80.1505Z" fill="white"/>
<path d="M148.949 84.5124C148.949 82.0588 152.118 82.0588 152.118 84.5124H154.423C154.423 83.6945 153.991 82.6041 152.695 81.7862C150.966 80.6957 147.509 81.241 146.933 83.4219C146.356 85.6029 146.645 88.0565 147.797 88.8743C148.949 89.6922 149.814 90.2374 152.118 89.6922C153.962 89.256 154.423 87.5112 154.423 86.6934H152.118C152.118 89.3105 148.949 89.147 148.949 86.6934V84.5124Z" fill="white"/>
<path d="M167.889 89.4196C165.885 89.0425 165.183 87.4818 165.083 86.7485H167.488C167.408 87.2674 167.689 87.6913 168.19 87.7698C170.354 87.8327 169.793 86.2772 168.59 86.2772C168.19 86.2772 167.188 86.0415 166.586 85.7273C164.422 84.7217 165.284 82.4277 166.486 81.9564C167.188 81.6421 167.889 81.4065 169.492 81.5636C171.256 81.6264 171.831 83.161 171.897 83.9204H169.492C169.392 82.5063 167.588 83.0562 167.689 83.6847C167.789 84.0775 168.089 84.3917 169.292 84.5489C171.296 84.7374 171.931 85.9891 171.998 86.5914V87.4556C171.677 88.7754 170.394 89.4196 168.891 89.4196H167.889Z" fill="white"/>
<path d="M110.285 89.9648C107.446 89.3927 106.452 87.0247 106.31 85.9122H109.717C109.604 86.6994 110.001 87.3425 110.711 87.4617C113.777 87.5571 112.982 85.197 111.279 85.197C110.711 85.197 109.291 84.8395 108.44 84.3627C105.373 82.837 106.594 79.3565 108.298 78.6414C109.291 78.1646 110.285 77.807 112.557 78.0454C115.055 78.1407 115.869 80.469 115.964 81.6212H112.557C112.415 79.4757 109.859 80.3101 110.001 81.2636C110.143 81.8596 110.569 82.3364 112.273 82.5748C115.112 82.8608 116.011 84.76 116.106 85.6738V86.985C115.651 88.9874 113.834 89.9648 111.705 89.9648H110.285Z" fill="white"/>
<path d="M99.3956 64.8837V44.7098H106.022V63.5206C108.327 66.7921 110.824 64.8837 111.784 63.5206V44.7098H118.41V70.8814H112.36C112.36 68.9185 111.976 68.6095 111.784 68.7004C109.191 73.6076 99.9718 71.6992 99.3956 64.8837Z" fill="white"/>
<path fill-rule="evenodd" clip-rule="evenodd" d="M70.5853 33.5323C70.6813 32.9871 70.7582 31.7876 70.2972 31.3514C69.721 32.4419 67.7043 34.0776 66.84 34.0776C65.9756 34.3502 63.9589 34.3502 62.8065 33.805C62.7286 33.7681 62.6401 33.7287 62.5424 33.6853C61.1958 33.0861 58.0994 31.7084 56.7563 25.3537C56.4682 23.1728 56.4682 20.4465 56.7563 16.0846C57.1405 13.2675 59.234 7.52433 64.5351 7.08814C68.0317 7.08814 69.0764 8.33745 69.9583 9.39203C70.1663 9.64084 70.3653 9.8788 70.5853 10.087C70.6813 9.54172 70.8158 8.28767 70.5853 7.63338H76.3474V33.805H70.5853V33.5323ZM67.7043 18.2656C66.7823 21.3189 66.936 23.8997 67.1281 24.8085C68.5686 26.7168 67.4162 27.5347 67.1281 27.5347C66.8399 27.5347 65.9756 27.5347 65.9756 27.8073C65.9756 28.0799 64.8232 28.8978 64.247 28.3525C63.6708 27.8073 63.0946 27.2621 63.0946 26.4442C63.0946 25.8107 63.4403 25.5043 64.1318 24.8916C64.333 24.7133 64.5635 24.509 64.8232 24.2632C65.2949 22.4778 65.5736 19.9614 65.8172 17.7613L65.8175 17.7582C65.8714 17.272 65.9235 16.8012 65.9756 16.3572C64.3623 14.1763 65.6875 13.631 66.5518 13.631C66.6479 13.7219 67.1857 14.0127 68.5686 14.4489C69.9515 14.8851 69.3368 16.0846 68.8567 16.6299C68.0378 17.1464 67.8839 17.6629 67.73 18.1795C67.7215 18.2082 67.7129 18.2369 67.7043 18.2656Z" fill="white"/>
<path fill-rule="evenodd" clip-rule="evenodd" d="M32.2676 33.5323V0H46.0965C56.6987 2.83525 53.5872 14.1763 47.2489 15.2668C59.3493 17.993 54.1634 33.5323 46.0965 33.5323H32.2676ZM39.4702 19.0834V27.5347H43.2155C46.6727 27.5347 49.669 21.0463 43.2155 19.0834H39.4702ZM39.4702 13.0858V5.99765H42.3512C48.1133 6.5429 45.5203 13.3584 42.3512 13.0858H39.4702Z" fill="white"/>
<path fill-rule="evenodd" clip-rule="evenodd" d="M75.195 71.6992V37.6217H88.1596C96.8027 37.6217 102.91 54.8513 88.1596 59.4313H82.6856V71.6992H75.195ZM88.1596 54.2515H81.2451C80.0927 54.2515 81.7253 52.9793 82.6856 52.3432C80.3808 50.9801 82.6856 50.7074 83.5499 51.7979C86.1776 50.5547 87.1277 51.8061 87.9302 52.8631C88.0076 52.965 88.0836 53.0651 88.1596 53.161C93.2302 47.9267 89.312 43.6735 85.8548 43.3467H81.2451C80.5537 42.9105 80.957 42.4379 81.2451 42.2562H85.8548C94.786 44.1645 91.6168 52.8884 88.1596 54.2515Z" fill="white"/>
<path fill-rule="evenodd" clip-rule="evenodd" d="M92.7692 87.2386H90.4644C89.8882 88.8743 87.2953 88.9834 87.2953 86.1481H93.0573C93.0573 84.5124 92.2507 81.241 89.0239 81.241C85.7971 81.241 84.9904 84.5124 84.9904 86.1481C85.0865 87.4204 86.0276 89.9648 89.0239 89.9648C92.0202 89.9648 92.7692 88.1474 92.7692 87.2386ZM89.0239 82.8767C90.4068 82.8767 90.7525 84.1489 90.7525 84.785H87.2953C87.2953 84.2398 87.641 83.0948 89.0239 82.8767Z" fill="white"/>
<path fill-rule="evenodd" clip-rule="evenodd" d="M75.1949 89.6922V78.5147H80.957C83.5499 77.9695 86.4886 83.8036 80.957 85.3303H78.076V89.6922H75.1949ZM78.076 80.1505V83.6945H80.3808C82.1094 82.8767 82.1094 81.241 80.3808 80.1505H78.076Z" fill="white"/>
<path fill-rule="evenodd" clip-rule="evenodd" d="M120.427 86.1481H125.613V83.6945C124.461 80.4231 119.563 80.1505 118.122 83.6945V87.5112C118.987 90.7827 125.037 90.7827 125.613 87.7838V87.2386H123.596C123.308 88.6017 120.197 88.9834 120.427 86.1481ZM123.596 84.785H120.427C120.427 84.1489 120.427 82.8767 121.868 82.8767C123.596 82.8767 123.596 83.9672 123.596 84.785Z" fill="white"/>
<path fill-rule="evenodd" clip-rule="evenodd" d="M158.169 86.1481H163.355V83.6945C162.202 80.4231 157.304 80.1505 155.864 83.6945V87.5112C156.728 90.7827 162.778 90.7827 163.355 87.7838V87.2386H161.338C161.05 88.6017 157.938 88.9834 158.169 86.1481ZM161.338 84.785H158.169C158.169 84.1489 158.169 82.8767 159.609 82.8767C161.338 82.8767 161.338 83.9672 161.338 84.785Z" fill="white"/>
<path d="M81.2451 54.2515H88.1596C91.6168 52.8884 94.786 44.1645 85.8548 42.2562H81.2451C80.957 42.4379 80.5537 42.9105 81.2451 43.3467H85.8548C89.312 43.6735 93.2302 47.9267 88.1596 53.161C88.0836 53.0651 88.0076 52.965 87.9302 52.8631C87.1277 51.8061 86.1776 50.5547 83.5499 51.7979C82.6856 50.7074 80.3808 50.9801 82.6856 52.3432C81.7253 52.9793 80.0927 54.2515 81.2451 54.2515Z" fill="#F5822B"/>
<path d="M67.1281 24.8085C66.936 23.8997 66.7823 21.3189 67.7043 18.2656L67.73 18.1795C67.8839 17.6629 68.0378 17.1464 68.8567 16.6299C69.3368 16.0846 69.9515 14.8851 68.5686 14.4489C67.1857 14.0127 66.6479 13.7219 66.5518 13.631C65.6875 13.631 64.3623 14.1763 65.9756 16.3572C65.9235 16.8012 65.8714 17.272 65.8175 17.7582L65.8172 17.7613C65.5736 19.9614 65.2949 22.4778 64.8232 24.2632C64.5635 24.509 64.333 24.7133 64.1318 24.8916C63.4403 25.5043 63.0946 25.8107 63.0946 26.4442C63.0946 27.2621 63.6708 27.8073 64.247 28.3525C64.8232 28.8978 65.9756 28.0799 65.9756 27.8073C65.9756 27.5347 66.8399 27.5347 67.1281 27.5347C67.4162 27.5347 68.5686 26.7168 67.1281 24.8085Z" fill="#F5822B"/>
</svg>
