<svg width="28" height="28" viewBox="0 0 28 28" fill="none" xmlns="http://www.w3.org/2000/svg">
<path d="M9.01875 2.3125H18.7313C22.4313 2.3125 25.4375 5.31875 25.4375 9.01875V18.7313C25.4375 20.5099 24.731 22.2156 23.4733 23.4733C22.2156 24.731 20.5099 25.4375 18.7313 25.4375H9.01875C5.31875 25.4375 2.3125 22.4313 2.3125 18.7313V9.01875C2.3125 7.24014 3.01905 5.53438 4.27672 4.27672C5.53438 3.01905 7.24014 2.3125 9.01875 2.3125ZM8.7875 4.625C7.68354 4.625 6.62479 5.06355 5.84417 5.84417C5.06355 6.62479 4.625 7.68354 4.625 8.7875V18.9625C4.625 21.2634 6.48656 23.125 8.7875 23.125H18.9625C20.0665 23.125 21.1252 22.6865 21.9058 21.9058C22.6865 21.1252 23.125 20.0665 23.125 18.9625V8.7875C23.125 6.48656 21.2634 4.625 18.9625 4.625H8.7875ZM19.9453 6.35938C20.3286 6.35938 20.6963 6.51165 20.9673 6.7827C21.2384 7.05375 21.3906 7.42137 21.3906 7.80469C21.3906 8.18801 21.2384 8.55563 20.9673 8.82668C20.6963 9.09773 20.3286 9.25 19.9453 9.25C19.562 9.25 19.1944 9.09773 18.9233 8.82668C18.6523 8.55563 18.5 8.18801 18.5 7.80469C18.5 7.42137 18.6523 7.05375 18.9233 6.7827C19.1944 6.51165 19.562 6.35938 19.9453 6.35938ZM13.875 8.09375C15.4083 8.09375 16.8788 8.70284 17.963 9.78704C19.0472 10.8712 19.6562 12.3417 19.6562 13.875C19.6562 15.4083 19.0472 16.8788 17.963 17.963C16.8788 19.0472 15.4083 19.6562 13.875 19.6562C12.3417 19.6562 10.8712 19.0472 9.78704 17.963C8.70284 16.8788 8.09375 15.4083 8.09375 13.875C8.09375 12.3417 8.70284 10.8712 9.78704 9.78704C10.8712 8.70284 12.3417 8.09375 13.875 8.09375ZM13.875 10.4062C12.955 10.4062 12.0727 10.7717 11.4222 11.4222C10.7717 12.0727 10.4062 12.955 10.4062 13.875C10.4062 14.795 10.7717 15.6773 11.4222 16.3278C12.0727 16.9783 12.955 17.3438 13.875 17.3438C14.795 17.3438 15.6773 16.9783 16.3278 16.3278C16.9783 15.6773 17.3438 14.795 17.3438 13.875C17.3438 12.955 16.9783 12.0727 16.3278 11.4222C15.6773 10.7717 14.795 10.4062 13.875 10.4062Z" fill="#FAFFFF"/>
</svg>
