<svg width="28" height="28" viewBox="0 0 28 28" fill="none" xmlns="http://www.w3.org/2000/svg">
<path d="M10.4525 24.9056C11.5625 25.2409 12.6841 25.4375 13.875 25.4375C16.9416 25.4375 19.8825 24.2193 22.0509 22.0509C24.2193 19.8825 25.4375 16.9416 25.4375 13.875C25.4375 12.3566 25.1384 10.853 24.5574 9.45022C23.9763 8.0474 23.1246 6.77276 22.0509 5.69908C20.9772 4.6254 19.7026 3.77371 18.2998 3.19264C16.897 2.61157 15.3934 2.3125 13.875 2.3125C12.3566 2.3125 10.853 2.61157 9.45022 3.19264C8.0474 3.77371 6.77276 4.6254 5.69908 5.69908C3.53069 7.86747 2.3125 10.8084 2.3125 13.875C2.3125 18.7891 5.39969 23.0094 9.75875 24.6744C9.65469 23.7725 9.55062 22.2809 9.75875 21.2519L11.0884 15.54C11.0884 15.54 10.7531 14.8694 10.7531 13.8056C10.7531 12.21 11.7475 11.0191 12.8806 11.0191C13.875 11.0191 14.3375 11.7475 14.3375 12.6841C14.3375 13.6784 13.6784 15.1006 13.3431 16.465C13.1466 17.5981 13.9444 18.5925 15.1006 18.5925C17.1588 18.5925 18.7544 16.3956 18.7544 13.2969C18.7544 10.5219 16.7656 8.62563 13.9097 8.62563C10.6491 8.62563 8.72969 11.0538 8.72969 13.6091C8.72969 14.6034 9.05344 15.6094 9.58531 16.2684C9.68937 16.3378 9.68938 16.4303 9.65469 16.6037L9.31938 17.8641C9.31938 18.0606 9.19219 18.13 8.99563 17.9913C7.51563 17.3438 6.66 15.2394 6.66 13.5397C6.66 9.88594 9.25 6.5675 14.245 6.5675C18.2225 6.5675 21.3213 9.42344 21.3213 13.2159C21.3213 17.1934 18.8584 20.3847 15.3319 20.3847C14.2103 20.3847 13.1119 19.7834 12.7188 19.0781L11.9441 21.8184C11.6781 22.8128 10.9497 24.1425 10.4525 24.9403V24.9056Z" fill="#FAFFFF"/>
</svg>
