<svg width="390" height="394" viewBox="0 0 390 394" fill="none" xmlns="http://www.w3.org/2000/svg">
<path d="M78.6564 237.619C40.0796 248.736 28.2755 282.061 27.1955 297.333C20.9316 319.345 39.5271 366.487 91.5797 369.938C142.424 361.867 183.684 384.189 197.959 396.359C283.013 427.731 308.361 333.865 278.895 296.831C257.765 274.573 243.701 234.038 239.31 216.553C213.202 150.638 151.982 170.784 136.046 190.905C123.685 204.145 94.9019 232.023 78.6564 237.619Z" fill="#F0FEFF" fill-opacity="0.12"/>
<path d="M25.8882 206.325C-32.281 157.859 21.5911 67.9526 51.3008 75.3316C77.3209 79.5399 88.2142 116.862 90.4084 134.997C105.542 214.172 50.7575 227.047 25.8882 206.325Z" fill="#F0FEFF" fill-opacity="0.12"/>
<path d="M111.074 135.775C69.104 65.5104 142.358 -9.64281 183.209 1.01563C208.989 12.7468 207.321 66.0936 203.265 91.3006C193.289 165.878 131.017 169.163 111.074 135.775Z" fill="#F0FEFF" fill-opacity="0.12"/>
<path d="M330.452 281.972C404.538 266.354 398.991 161.69 369.282 154.311C344.316 145.856 317.226 173.744 306.802 188.745C256.383 251.638 298.778 288.649 330.452 281.972Z" fill="#F0FEFF" fill-opacity="0.12"/>
<path d="M288.174 179.764C358.142 137.301 328.563 36.6071 287.473 26.9138C259.2 25.22 235.714 73.1478 227.505 97.3234C201.429 167.902 254.928 199.941 288.174 179.764Z" fill="#F0FEFF" fill-opacity="0.12"/>
</svg>
