<svg width="134" height="125" viewBox="0 0 134 125" fill="none" xmlns="http://www.w3.org/2000/svg">
<path fill-rule="evenodd" clip-rule="evenodd" d="M112.79 84.8545C121.365 108.478 102.556 127.349 79.3973 122.693C75.0323 121.009 63.8008 118.65 53.7956 122.693C38.0521 129.056 10.588 112.827 20.1306 84.7876C-13.7524 72.541 0.699684 24.5587 23.7263 27.8378C25.6625 9.30066 50.5561 -12.3818 66.4604 9.09984C78.5614 -7.76423 100.827 -0.737558 109.748 27.9046C132.221 24.8263 147.088 72.2064 112.79 84.8545ZM78.6309 119.051C100.413 125.342 118.599 104.864 108.227 82.6461C143.147 75.084 128.418 24.0902 106.843 32.3215C101.588 0.199398 73.237 -4.55201 66.4604 16.3943C51.4689 -12.7833 27.5987 14.5874 26.4926 32.3215C3.74228 23.6887 -9.1886 75.3517 25.4553 82.6461C12.1095 108.611 39.7691 125.032 54.567 119.051C63.9713 115.25 74.5281 117.467 78.6309 119.051Z" fill="#F5822B"/>
<path d="M39.1465 79.1662C29.4104 84.5734 28.4515 94.0449 29.1891 98.1048C28.9725 104.262 37.2104 115.37 51.5934 112.894C64.87 107.487 77.5934 110.641 82.2955 112.894C107.535 115.571 108.088 89.4051 97.5774 81.6422C90.3306 77.1987 83.7707 67.5219 81.3966 63.239C69.8487 47.7133 54.5668 56.9484 51.5934 63.239C49.1271 67.4996 43.1849 76.6499 39.1465 79.1662Z" fill="#282F30"/>
<path d="M22.6891 74.4148C3.60398 65.5276 12.1784 38.5451 20.7529 38.5451C28.1104 37.9562 33.5916 46.9994 35.4125 51.5947C44.872 71.2962 30.8486 78.2143 22.6891 74.4148Z" fill="#282F30"/>
<path d="M41.0827 50.457C24.9295 34.8243 39.7689 10.4382 51.5934 10.5721C59.3935 11.964 62.542 26.0085 63.1412 32.8568C65.4646 52.9867 48.7582 57.8853 41.0827 50.457Z" fill="#282F30"/>
<path d="M110.59 74.4153C129.675 65.5282 121.1 38.5456 112.526 38.5456C105.168 37.9567 99.687 47 97.8662 51.5952C88.4066 71.2968 102.43 78.2149 110.59 74.4153Z" fill="#282F30"/>
<path d="M92.1959 50.4576C108.349 34.8248 93.5098 10.4388 81.6852 10.5726C73.8852 11.9646 70.7367 26.0091 70.1374 32.8574C67.814 52.9872 84.5204 57.8858 92.1959 50.4576Z" fill="#282F30"/>
<path fill-rule="evenodd" clip-rule="evenodd" d="M108.227 82.6461C118.599 104.864 100.413 125.342 78.6309 119.051C74.5281 117.467 63.9713 115.25 54.567 119.051C39.7691 125.032 12.1095 108.611 25.4553 82.6461C-9.1886 75.3517 3.74228 23.6887 26.4926 32.3215C27.5987 14.5874 51.4689 -12.7833 66.4604 16.3943C73.237 -4.55201 101.588 0.199398 106.843 32.3215C128.418 24.0902 143.147 75.084 108.227 82.6461ZM39.1465 79.1662C29.4104 84.5734 28.4515 94.0449 29.1891 98.1048C28.9725 104.262 37.2104 115.37 51.5934 112.894C64.87 107.487 77.5934 110.641 82.2955 112.894C107.535 115.571 108.088 89.4051 97.5774 81.6422C90.3306 77.1987 83.7707 67.5219 81.3966 63.239C69.8487 47.7133 54.5668 56.9484 51.5934 63.239C49.1271 67.4996 43.1849 76.6499 39.1465 79.1662ZM22.6891 74.4148C3.60398 65.5276 12.1784 38.5451 20.7529 38.5451C28.1104 37.9562 33.5916 46.9994 35.4125 51.5947C44.872 71.2962 30.8486 78.2143 22.6891 74.4148ZM41.0827 50.457C24.9295 34.8243 39.7689 10.4382 51.5934 10.5721C59.3935 11.964 62.542 26.0085 63.1412 32.8568C65.4646 52.9867 48.7582 57.8853 41.0827 50.457ZM110.59 74.4153C129.675 65.5282 121.1 38.5456 112.526 38.5456C105.168 37.9567 99.687 47 97.8662 51.5952C88.4066 71.2968 102.43 78.2149 110.59 74.4153ZM92.1959 50.4576C108.349 34.8248 93.5098 10.4388 81.6852 10.5726C73.8852 11.9646 70.7367 26.0091 70.1374 32.8574C67.814 52.9872 84.5204 57.8858 92.1959 50.4576Z" fill="#FAFFFF"/>
<path fill-rule="evenodd" clip-rule="evenodd" d="M112.79 84.8545C121.365 108.478 102.556 127.349 79.3973 122.693C75.0323 121.009 63.8008 118.65 53.7956 122.693C38.0521 129.056 10.588 112.827 20.1306 84.7876C-13.7524 72.541 0.699684 24.5587 23.7263 27.8378C25.6625 9.30066 50.5561 -12.3818 66.4604 9.09984C78.5614 -7.76423 100.827 -0.737558 109.748 27.9046C132.221 24.8263 147.088 72.2064 112.79 84.8545ZM78.6309 119.051C100.413 125.342 118.599 104.864 108.227 82.6461C143.147 75.084 128.418 24.0902 106.843 32.3215C101.588 0.199398 73.237 -4.55201 66.4604 16.3943C51.4689 -12.7833 27.5987 14.5874 26.4926 32.3215C3.74228 23.6887 -9.1886 75.3517 25.4553 82.6461C12.1095 108.611 39.7691 125.032 54.567 119.051C63.9713 115.25 74.5281 117.467 78.6309 119.051Z" stroke="white" stroke-width="0.138298"/>
<path d="M39.1465 79.1662C29.4104 84.5734 28.4515 94.0449 29.1891 98.1048C28.9725 104.262 37.2104 115.37 51.5934 112.894C64.87 107.487 77.5934 110.641 82.2955 112.894C107.535 115.571 108.088 89.4051 97.5774 81.6422C90.3306 77.1987 83.7707 67.5219 81.3966 63.239C69.8487 47.7133 54.5668 56.9484 51.5934 63.239C49.1271 67.4996 43.1849 76.6499 39.1465 79.1662Z" stroke="white" stroke-width="0.138298"/>
<path d="M22.6891 74.4148C3.60398 65.5276 12.1784 38.5451 20.7529 38.5451C28.1104 37.9562 33.5916 46.9994 35.4125 51.5947C44.872 71.2962 30.8486 78.2143 22.6891 74.4148Z" stroke="white" stroke-width="0.138298"/>
<path d="M41.0827 50.457C24.9295 34.8243 39.7689 10.4382 51.5934 10.5721C59.3935 11.964 62.542 26.0085 63.1412 32.8568C65.4646 52.9867 48.7582 57.8853 41.0827 50.457Z" stroke="white" stroke-width="0.138298"/>
<path d="M110.59 74.4153C129.675 65.5282 121.1 38.5456 112.526 38.5456C105.168 37.9567 99.687 47 97.8662 51.5952C88.4066 71.2968 102.43 78.2149 110.59 74.4153Z" stroke="white" stroke-width="0.138298"/>
<path d="M92.1959 50.4576C108.349 34.8248 93.5098 10.4388 81.6852 10.5726C73.8852 11.9646 70.7367 26.0091 70.1374 32.8574C67.814 52.9872 84.5204 57.8858 92.1959 50.4576Z" stroke="white" stroke-width="0.138298"/>
<path fill-rule="evenodd" clip-rule="evenodd" d="M108.227 82.6461C118.599 104.864 100.413 125.342 78.6309 119.051C74.5281 117.467 63.9713 115.25 54.567 119.051C39.7691 125.032 12.1095 108.611 25.4553 82.6461C-9.1886 75.3517 3.74228 23.6887 26.4926 32.3215C27.5987 14.5874 51.4689 -12.7833 66.4604 16.3943C73.237 -4.55201 101.588 0.199398 106.843 32.3215C128.418 24.0902 143.147 75.084 108.227 82.6461ZM39.1465 79.1662C29.4104 84.5734 28.4515 94.0449 29.1891 98.1048C28.9725 104.262 37.2104 115.37 51.5934 112.894C64.87 107.487 77.5934 110.641 82.2955 112.894C107.535 115.571 108.088 89.4051 97.5774 81.6422C90.3306 77.1987 83.7707 67.5219 81.3966 63.239C69.8487 47.7133 54.5668 56.9484 51.5934 63.239C49.1271 67.4996 43.1849 76.6499 39.1465 79.1662ZM22.6891 74.4148C3.60398 65.5276 12.1784 38.5451 20.7529 38.5451C28.1104 37.9562 33.5916 46.9994 35.4125 51.5947C44.872 71.2962 30.8486 78.2143 22.6891 74.4148ZM41.0827 50.457C24.9295 34.8243 39.7689 10.4382 51.5934 10.5721C59.3935 11.964 62.542 26.0085 63.1412 32.8568C65.4646 52.9867 48.7582 57.8853 41.0827 50.457ZM110.59 74.4153C129.675 65.5282 121.1 38.5456 112.526 38.5456C105.168 37.9567 99.687 47 97.8662 51.5952C88.4066 71.2968 102.43 78.2149 110.59 74.4153ZM92.1959 50.4576C108.349 34.8248 93.5098 10.4388 81.6852 10.5726C73.8852 11.9646 70.7367 26.0091 70.1374 32.8574C67.814 52.9872 84.5204 57.8858 92.1959 50.4576Z" stroke="white" stroke-width="0.138298"/>
</svg>
