<svg width="626" height="689" viewBox="0 0 626 689" fill="none" xmlns="http://www.w3.org/2000/svg">
<path d="M339.415 196.413L180.216 412.639H63.2132C5.66896 425.801 -44.1988 537.863 63.2132 587.501C113.08 602.543 161.032 600.663 161.032 645.788C176.379 714.981 258.215 684.646 297.215 660.83C339.415 608.184 329.822 563.81 283.788 491.609L452.579 252.82C477.514 243.419 510.121 264.101 527.383 264.101C583.007 264.101 629.041 237.778 625.205 173.85C627.123 145.647 610.244 89.9918 527.383 93.0002C487.488 93.0002 473.677 64.1701 471.759 49.7551C458.974 20.9249 414.606 -25.8302 339.415 17.7912C245.427 72.3179 339.415 115.562 339.415 196.413Z" fill="black"/>
</svg>
