<svg width="105" height="124" viewBox="0 0 105 124" fill="none" xmlns="http://www.w3.org/2000/svg">
<path fill-rule="evenodd" clip-rule="evenodd" d="M52.7748 118.977C68.1175 111.712 98.2032 94.235 100.252 65.7569V26.4439C81.911 25.5306 66.6682 15.2354 52.6749 6.10244C48.5269 7.38935 28.7263 25.0823 5.09757 26.4439V62.8099C5.09757 80.2035 12.2442 97.5146 52.7748 118.977ZM32.6385 72.69C25.6018 76.0443 24.9088 81.9197 25.4419 84.4382C25.2853 88.2574 31.2392 95.1486 41.6342 93.6126C51.2296 90.2584 60.4253 92.215 63.8237 93.6126C82.065 95.2732 82.4648 79.0415 74.8684 74.226C69.6309 71.4695 64.8899 65.4667 63.174 62.8099C54.828 53.1788 43.7832 58.9076 41.6342 62.8099C39.8517 65.4529 35.5571 71.1291 32.6385 72.69ZM20.7442 69.7425C6.95073 64.2296 13.1477 47.4915 19.3448 47.4915C24.6623 47.1262 28.6237 52.736 29.9397 55.5866C36.7765 67.808 26.6413 72.0995 20.7442 69.7425ZM34.0378 54.8808C22.3633 45.1833 33.0882 30.0559 41.6342 30.1389C47.2716 31.0024 49.5471 39.7147 49.9802 43.9629C51.6594 56.45 39.5851 59.4888 34.0378 54.8808ZM84.2727 69.7429C98.0661 64.2299 91.8691 47.4918 85.672 47.4918C80.3545 47.1265 76.3931 52.7363 75.0771 55.5869C68.2403 67.8084 78.3755 72.0998 84.2727 69.7429ZM70.979 54.8812C82.6535 45.1837 71.9286 30.0563 63.3826 30.1393C57.7452 31.0028 55.4697 39.715 55.0366 43.9632C53.3574 56.4504 65.4317 59.4891 70.979 54.8812Z" fill="#FAFFFF"/>
<path fill-rule="evenodd" clip-rule="evenodd" d="M2.74869 24.7004V62.8099C2.74869 85.7663 20.7442 104.862 52.7748 121.551C95.0047 99.3411 102.651 76.6749 102.651 65.7569V24.7419C94.6549 24.7004 78.2627 23.1229 52.6749 2.94744C44.2289 8.13659 25.4379 24.7004 2.74869 24.7004ZM100.252 65.7569C98.2032 94.235 68.1175 111.712 52.7748 118.977C12.2442 97.5146 5.09757 80.2035 5.09757 62.8099V26.4439C28.7263 25.0823 48.5269 7.38935 52.6749 6.10244C66.6682 15.2354 81.911 25.5306 100.252 26.4439V65.7569Z" fill="#F5822B"/>
<path fill-rule="evenodd" clip-rule="evenodd" d="M52.7748 124C102.651 99.1751 105 73.2708 105 65.7569V22.2511C83.8601 24.2022 60.4712 6.10244 52.6749 0L52.4603 0.166316C42.6702 7.75463 21.6799 24.0243 0 22.4171V62.8099C0 81.9886 12.9938 105.527 52.7748 124ZM2.74869 62.8099V24.7004C25.4379 24.7004 44.2289 8.13659 52.6749 2.94744C78.2627 23.1229 94.6549 24.7004 102.651 24.7419V65.7569C102.651 76.6749 95.0047 99.3411 52.7748 121.551C20.7442 104.862 2.74869 85.7663 2.74869 62.8099Z" fill="#F5822B"/>
<path d="M25.4419 84.4382C24.9088 81.9197 25.6018 76.0443 32.6385 72.69C35.5571 71.1291 39.8517 65.4529 41.6342 62.8099C43.7832 58.9076 54.828 53.1788 63.174 62.8099C64.8899 65.4667 69.6309 71.4695 74.8684 74.226C82.4648 79.0415 82.065 95.2732 63.8237 93.6126C60.4253 92.215 51.2296 90.2584 41.6342 93.6126C31.2392 95.1486 25.2853 88.2574 25.4419 84.4382Z" fill="#282F30"/>
<path d="M19.3448 47.4915C13.1477 47.4915 6.95073 64.2296 20.7442 69.7425C26.6413 72.0995 36.7765 67.808 29.9397 55.5866C28.6237 52.736 24.6623 47.1262 19.3448 47.4915Z" fill="#282F30"/>
<path d="M41.6342 30.1389C33.0882 30.0559 22.3633 45.1833 34.0378 54.8808C39.5851 59.4888 51.6594 56.45 49.9802 43.9629C49.5471 39.7147 47.2716 31.0024 41.6342 30.1389Z" fill="#282F30"/>
<path d="M63.3826 30.1393C71.9286 30.0563 82.6535 45.1837 70.979 54.8812C65.4317 59.4891 53.3574 56.4504 55.0366 43.9632C55.4697 39.715 57.7452 31.0028 63.3826 30.1393Z" fill="#282F30"/>
<path d="M85.672 47.4918C91.8691 47.4918 98.0661 64.2299 84.2727 69.7429C78.3755 72.0998 68.2403 67.8084 75.0771 55.5869C76.3931 52.7363 80.3545 47.1265 85.672 47.4918Z" fill="#282F30"/>
</svg>
